<?xml version="1.0" standalone="no"?>
<!DOCTYPE svg PUBLIC "-//W3C//DTD SVG 1.1//EN" "http://www.w3.org/Graphics/SVG/1.1/DTD/svg11.dtd" >
<svg xmlns="http://www.w3.org/2000/svg">
<metadata>Generated by IcoMoon</metadata>
<defs>
<font id="manapatasala" horiz-adv-x="1024">
<font-face units-per-em="1024" ascent="1194.6666666666665" descent="170.66666666666663" />
<missing-glyph horiz-adv-x="1024" />
<glyph unicode="&#x20;" horiz-adv-x="0" d="" />
<glyph unicode="&#xe003;" glyph-name="add_alert" d="M682 638.667v86h-128v128h-84v-128h-128v-86h128v-128h84v128h128zM806 476.667l90-90v-46h-768v46l90 90v248c0 138 96 256 226 286v30c0 38 30 68 68 68s68-30 68-68v-30c130-30 226-148 226-286v-248zM428 298.667h168c0-46-38-86-84-86s-84 40-84 86z" />
<glyph unicode="&#xe029;" glyph-name="mic" d="M738 724.667h72c0-146-116-266-256-286v-140h-84v140c-140 20-256 140-256 286h72c0-128 108-216 226-216s226 88 226 216zM512 596.667c-70 0-128 58-128 128v256c0 70 58 128 128 128s128-58 128-128v-256c0-70-58-128-128-128z" />
<glyph unicode="&#xe02a;" glyph-name="mic_none" d="M738 724.667h72c0-146-116-266-256-286v-140h-84v140c-140 20-256 140-256 286h72c0-128 108-216 226-216s226 88 226 216zM460 984.667v-264c0-28 24-50 52-50s50 22 50 50l2 264c0 28-24 52-52 52s-52-24-52-52zM512 596.667c-70 0-128 58-128 128v256c0 70 58 128 128 128s128-58 128-128v-256c0-70-58-128-128-128z" />
<glyph unicode="&#xe02b;" glyph-name="mic_off" d="M182 1066.667l714-714-54-54-178 178c-32-20-72-32-110-38v-140h-84v140c-140 20-256 140-256 286h72c0-128 108-216 226-216 34 0 68 8 98 22l-70 70c-8-2-18-4-28-4-70 0-128 58-128 128v32l-256 256zM640 718.667l-256 254v8c0 70 58 128 128 128s128-58 128-128v-262zM810 724.667c0-50-14-98-38-140l-52 54c12 26 18 54 18 86h72z" />
<glyph unicode="&#xe0bc;" glyph-name="dialpad" d="M512 1152.667c46 0 86-40 86-86s-40-86-86-86-86 40-86 86 40 86 86 86zM512 896.667c46 0 86-40 86-86s-40-86-86-86-86 40-86 86 40 86 86 86zM768 896.667c46 0 86-40 86-86s-40-86-86-86-86 40-86 86 40 86 86 86zM768 640.667c46 0 86-40 86-86s-40-86-86-86-86 40-86 86 40 86 86 86zM512 640.667c46 0 86-40 86-86s-40-86-86-86-86 40-86 86 40 86 86 86zM768 980.667c-46 0-86 40-86 86s40 86 86 86 86-40 86-86-40-86-86-86zM256 640.667c46 0 86-40 86-86s-40-86-86-86-86 40-86 86 40 86 86 86zM256 896.667c46 0 86-40 86-86s-40-86-86-86-86 40-86 86 40 86 86 86zM256 1152.667c46 0 86-40 86-86s-40-86-86-86-86 40-86 86 40 86 86 86zM512 384.667c46 0 86-40 86-86s-40-86-86-86-86 40-86 86 40 86 86 86z" />
<glyph unicode="&#xe0cd;" glyph-name="phone" d="M282 734.667c62-120 162-220 282-282l94 94c12 12 30 16 44 10 48-16 100-24 152-24 24 0 42-18 42-42v-150c0-24-18-42-42-42-400 0-726 326-726 726 0 24 18 42 42 42h150c24 0 42-18 42-42 0-54 8-104 24-152 4-14 2-32-10-44z" />
<glyph unicode="&#xe145;" glyph-name="add" d="M810 640.667h-256v-256h-84v256h-256v84h256v256h84v-256h256v-84z" />
<glyph unicode="&#xe147;" glyph-name="add_circle" d="M726 640.667v84h-172v172h-84v-172h-172v-84h172v-172h84v172h172zM512 1108.667c236 0 426-190 426-426s-190-426-426-426-426 190-426 426 190 426 426 426z" />
<glyph unicode="&#xe149;" glyph-name="archive" d="M218 980.667h588l-40 44h-512zM512 448.667l234 234h-148v86h-172v-86h-148zM876 970.667c12-14 20-34 20-54v-532c0-46-40-86-86-86h-596c-46 0-86 40-86 86v532c0 20 8 40 20 54l58 72c12 14 30 24 50 24h512c20 0 38-10 50-24z" />
<glyph unicode="&#xe226;" glyph-name="attach_file" d="M704 938.667h64v-490c0-130-104-236-234-236s-236 106-236 236v532c0 94 78 172 172 172s170-78 170-172v-448c0-58-48-106-106-106s-108 48-108 106v406h64v-406c0-24 20-42 44-42s42 18 42 42v448c0 58-48 108-106 108s-108-50-108-108v-532c0-94 78-172 172-172s170 78 170 172v490z" />
<glyph unicode="&#xe227;" glyph-name="attach_money" d="M504 728.667c96-26 200-64 200-186 0-88-66-136-150-152v-92h-128v92c-82 18-150 70-156 164h94c4-50 38-90 126-90 94 0 116 46 116 76 0 40-22 78-128 104-120 28-200 78-200 176 0 82 66 136 148 154v92h128v-94c90-22 136-88 138-162h-94c-2 54-32 90-108 90-72 0-114-34-114-80 0-40 32-66 128-92z" />
<glyph unicode="&#xe22b;" glyph-name="border_color" d="M0 340.667h1024v-170h-1024v170zM884 1022.667l-84-84-160 160 84 84c16 16 44 16 60 0l100-100c16-16 16-44 0-60zM758 896.667l-428-428h-160v160l428 428z" />
<glyph unicode="&#xe241;" glyph-name="format_list_bulleted" d="M298 980.667h598v-84h-598v84zM298 640.667v84h598v-84h-598zM298 384.667v84h598v-84h-598zM170 490.667c36 0 64-30 64-64s-30-64-64-64-64 30-64 64 28 64 64 64zM170 1002.667c36 0 64-28 64-64s-28-64-64-64-64 28-64 64 28 64 64 64zM170 746.667c36 0 64-28 64-64s-28-64-64-64-64 28-64 64 28 64 64 64z" />
<glyph unicode="&#xe254;" glyph-name="mode_edit" d="M884 894.667l-78-78-160 160 78 78c16 16 44 16 60 0l100-100c16-16 16-44 0-60zM128 458.667l472 472 160-160-472-472h-160v160z" />
<glyph unicode="&#xe311;" glyph-name="headset_mic" d="M512 1152.667c212 0 384-172 384-384v-428c0-70-58-128-128-128h-256v86h298v42h-170v342h170v86c0 166-132 298-298 298s-298-132-298-298v-86h170v-342h-128c-70 0-128 58-128 128v300c0 212 172 384 384 384z" />
<glyph unicode="&#xe325;" glyph-name="phone_iphone" d="M682 426.667v598h-384v-598h384zM490 256.667c36 0 64 28 64 64s-28 64-64 64-64-28-64-64 28-64 64-64zM662 1152.667c58 0 106-50 106-108v-724c0-58-48-108-106-108h-342c-58 0-106 50-106 108v724c0 58 48 108 106 108h342z" />
<glyph unicode="&#xe3ae;" glyph-name="brush" d="M884 996.667c16-16 16-44 0-60l-382-382-118 118 382 382c16 16 44 16 60 0zM298 596.667c70 0 128-58 128-128 0-94-76-170-170-170-64 0-130 34-170 86 36 0 84 28 84 84 0 70 58 128 128 128z" />
<glyph unicode="&#xe3ba;" glyph-name="control_point" d="M512 340.667c188 0 342 154 342 342s-154 342-342 342-342-154-342-342 154-342 342-342zM512 1108.667c236 0 426-190 426-426s-190-426-426-426-426 190-426 426 190 426 426 426zM554 896.667v-172h172v-84h-172v-172h-84v172h-172v84h172v172h84z" />
<glyph unicode="&#xe405;" glyph-name="music_note" d="M512 1066.667h256v-170h-170v-428c0-94-78-170-172-170s-170 76-170 170 76 172 170 172c32 0 60-10 86-24v450z" />
<glyph unicode="&#xe408;" glyph-name="navigate_before" d="M658 878.667l-196-196 196-196-60-60-256 256 256 256z" />
<glyph unicode="&#xe409;" glyph-name="navigate_next" d="M426 938.667l256-256-256-256-60 60 196 196-196 196z" />
<glyph unicode="&#xe412;" glyph-name="photo_camera" d="M512 468.667c118 0 214 96 214 214s-96 214-214 214-214-96-214-214 96-214 214-214zM384 1108.667h256l78-84h136c46 0 84-40 84-86v-512c0-46-38-86-84-86h-684c-46 0-84 40-84 86v512c0 46 38 86 84 86h136zM376 682.667c0 76 60 136 136 136s136-60 136-136-60-136-136-136-136 60-136 136z" />
<glyph unicode="&#xe429;" glyph-name="tune" d="M640 810.667v256h86v-86h170v-84h-170v-86h-86zM896 640.667h-426v84h426v-84zM298 810.667h86v-256h-86v86h-170v84h170v86zM554 298.667h-84v256h84v-86h342v-84h-342v-86zM128 980.667h426v-84h-426v84zM128 468.667h256v-84h-256v84z" />
<glyph unicode="&#xe52d;" glyph-name="beenhere" d="M426 512.667l384 384-60 60-324-324-152 152-60-60zM810 1152.667c46 0 86-40 86-86v-552c0-30-16-54-38-70l-346-232-346 232c-22 16-38 40-38 70v552c0 46 40 86 86 86h596z" />
<glyph unicode="&#xe5c9;" glyph-name="cancel" d="M726 528.667l-154 154 154 154-60 60-154-154-154 154-60-60 154-154-154-154 60-60 154 154 154-154zM512 1108.667c236 0 426-190 426-426s-190-426-426-426-426 190-426 426 190 426 426 426z" />
<glyph unicode="&#xe5ca;" glyph-name="check" d="M384 504.667l452 452 60-60-512-512-238 238 60 60z" />
<glyph unicode="&#xe5cd;" glyph-name="close" d="M810 920.667l-238-238 238-238-60-60-238 238-238-238-60 60 238 238-238 238 60 60 238-238 238 238z" />
<glyph unicode="&#xe5ce;" glyph-name="expand_less" d="M512 852.667l256-256-60-60-196 196-196-196-60 60z" />
<glyph unicode="&#xe5cf;" glyph-name="expand_more" d="M708 828.667l60-60-256-256-256 256 60 60 196-196z" />
<glyph unicode="&#xe5d4;" glyph-name="more_vert" d="M512 512.667c46 0 86-40 86-86s-40-86-86-86-86 40-86 86 40 86 86 86zM512 768.667c46 0 86-40 86-86s-40-86-86-86-86 40-86 86 40 86 86 86zM512 852.667c-46 0-86 40-86 86s40 86 86 86 86-40 86-86-40-86-86-86z" />
<glyph unicode="&#xe5d7;" glyph-name="unfold_more" d="M512 418.667l136 136 60-60-196-196-196 196 60 60zM512 946.667l-136-136-60 60 196 196 196-196-60-60z" />
<glyph unicode="&#xe7f0;" glyph-name="group_add" d="M554 640.667c86 0 256-42 256-128v-86h-512v86c0 86 170 128 256 128zM838 632.667c86-14 186-54 186-120v-86h-128v86c0 50-22 88-58 120zM554 724.667c-70 0-128 58-128 128s58 128 128 128 128-58 128-128-58-128-128-128zM768 724.667c-14 0-26 2-38 6 24 34 38 76 38 122s-14 88-38 122c12 4 24 6 38 6 70 0 128-58 128-128s-58-128-128-128zM342 768.667v-86h-128v-128h-86v128h-128v86h128v128h86v-128h128z" />
<glyph unicode="&#xe7f4;" glyph-name="notifications" d="M768 512.667l86-86v-42h-684v42l86 86v212c0 132 70 240 192 270v30c0 36 28 64 64 64s64-28 64-64v-30c122-30 192-140 192-270v-212zM512 256.667c-48 0-86 38-86 84h172c0-46-40-84-86-84z" />
<glyph unicode="&#xe7f5;" glyph-name="notifications_none" d="M682 468.667v256c0 106-64 192-170 192s-170-86-170-192v-256h340zM768 512.667l86-86v-42h-684v42l86 86v212c0 132 70 240 192 270v30c0 36 28 64 64 64s64-28 64-64v-30c122-30 192-140 192-270v-212zM512 256.667c-46 0-86 38-86 84h172c0-46-40-84-86-84z" />
<glyph unicode="&#xe7fb;" glyph-name="people" d="M682 640.667c100 0 300-50 300-150v-106h-256v106c0 64-34 112-84 148 14 2 28 2 40 2zM342 640.667c100 0 298-50 298-150v-106h-598v106c0 100 200 150 300 150zM342 724.667c-70 0-128 58-128 128s58 128 128 128 126-58 126-128-56-128-126-128zM682 724.667c-70 0-128 58-128 128s58 128 128 128 128-58 128-128-58-128-128-128z" />
<glyph unicode="&#xe7fd;" glyph-name="person" d="M512 596.667c114 0 342-56 342-170v-86h-684v86c0 114 228 170 342 170zM512 682.667c-94 0-170 76-170 170s76 172 170 172 170-78 170-172-76-170-170-170z" />
<glyph unicode="&#xe7fe;" glyph-name="person_add" d="M640 596.667c114 0 342-56 342-170v-86h-684v86c0 114 228 170 342 170zM256 768.667h128v-86h-128v-128h-86v128h-128v86h128v128h86v-128zM640 682.667c-94 0-170 76-170 170s76 172 170 172 170-78 170-172-76-170-170-170z" />
<glyph unicode="&#xe84d;" glyph-name="d_rotation" d="M512 1194.667c268 0 488-206 510-468h-64c-14 160-114 294-254 360l-58-56-162 162zM706 690.667c0 69.871-27.338 114-94 114h-40v-246h38c51.287 0 80.544 27.904 92 68 4 14 4 30 4 48v16zM612 852.667c76.364 0 121.865-38.664 144-94 8-20 10-44 10-68v-16c0-52.811-15.142-91.142-42-118-26.824-26.824-61.104-44-114-44h-98v340h100zM414 686.667c30.607-12.243 56-36.493 56-78 0-16-4-28-10-40s-12-24-22-32c-18.756-15.005-47.096-24-80-24-62.192 0-108 31.488-108 94h54c0-30.904 23.204-50 54-50 35.74 0 56 17.079 56 54 0 37.687-24.79 54-62 54h-32v44h32c34.608 0 58 16.061 58 50 0 33.049-17.68 50-52 50-28.888 0-50-17.163-50-46h-56c0 29.787 15.103 49.103 30 64 19.854 15.883 41.797 26 76 26 51.295 0 80.772-19.544 98-54 6-12 8-24 8-40 0-36.376-24.671-59.335-50-72zM320 278.667l58 56 162-162-28-2c-268 0-488 208-510 470h64c16-160 114-296 254-362z" />
<glyph unicode="&#xe859;" glyph-name="android" d="M640 980.667v44h-42v-44h42zM426 980.667v44h-42v-44h42zM662 1102.667c64-46 106-122 106-206h-512c0 84 40 160 104 206l-56 56c-8 8-8 22 0 30s22 8 30 0l64-64c34 18 74 28 114 28s78-10 112-28l64 64c8 8 22 8 30 0s8-22 0-30zM874 852.667c36 0 64-28 64-64v-298c0-36-28-64-64-64s-64 28-64 64v298c0 36 28 64 64 64zM150 852.667c36 0 64-28 64-64v-298c0-36-28-64-64-64s-64 28-64 64v298c0 36 28 64 64 64zM256 426.667v426h512v-426c0-24-18-42-42-42h-44v-150c0-36-28-64-64-64s-64 28-64 64v150h-84v-150c0-36-28-64-64-64s-64 28-64 64v150h-44c-24 0-42 18-42 42z" />
<glyph unicode="&#xe869;" glyph-name="build" d="M968 384.667c18-12 18-42-4-60l-98-98c-18-18-42-18-60 0l-388 388c-98-38-212-18-294 64-86 86-108 214-56 316l188-184 128 128-184 184c102 46 230 30 316-56 82-82 102-196 64-294z" />
<glyph unicode="&#xe86a;" glyph-name="cached" d="M256 682.667h128l-170-170-172 170h128c0 188 154 342 342 342 66 0 130-20 182-54l-62-62c-36 20-76 30-120 30-142 0-256-114-256-256zM810 852.667l172-170h-128c0-188-154-342-342-342-66 0-130 20-182 54l62 62c36-20 76-30 120-30 142 0 256 114 256 256h-128z" />
<glyph unicode="&#xe86e;" glyph-name="class" d="M256 1024.667v-342l106 64 108-64v342h-214zM768 1108.667c46 0 86-38 86-84v-684c0-46-40-84-86-84h-512c-46 0-86 38-86 84v684c0 46 40 84 86 84h512z" />
<glyph unicode="&#xe871;" glyph-name="dashboard" d="M554 1066.667h342v-256h-342v256zM554 298.667v426h342v-426h-342zM128 298.667v256h342v-256h-342zM128 640.667v426h342v-426h-342z" />
<glyph unicode="&#xe876;" glyph-name="done" d="M384 502.667l452 454 60-60-512-512-238 238 58 60z" />
<glyph unicode="&#xe877;" glyph-name="done_all" d="M18 622.667l60 60 238-238-60-60zM948 956.667l62-60-512-512-240 238 62 60 178-178zM768 896.667l-270-272-60 60 270 272z" />
<glyph unicode="&#xe87b;" glyph-name="extension" d="M874 724.667c58 0 108-48 108-106s-50-106-108-106h-64v-172c0-46-38-84-84-84h-162v64c0 64-52 114-116 114s-116-50-116-114v-64h-162c-46 0-84 38-84 84v162h64c64 0 114 52 114 116s-50 116-114 116h-64v162c0 46 38 84 84 84h172v64c0 58 48 108 106 108s106-50 106-108v-64h172c46 0 84-38 84-84v-172h64z" />
<glyph unicode="&#xe87c;" glyph-name="face" d="M512 340.667c188 0 342 154 342 342 0 34-6 66-14 96-30-8-62-10-96-10-144 0-270 70-348 180-42-102-124-186-224-230-2-12-2-24-2-36 0-188 154-342 342-342zM512 1108.667c236 0 426-190 426-426s-190-426-426-426-426 190-426 426 190 426 426 426zM640 692.667c30 0 54-22 54-52s-24-54-54-54-54 24-54 54 24 52 54 52zM384 692.667c30 0 54-22 54-52s-24-54-54-54-54 24-54 54 24 52 54 52z" />
<glyph unicode="&#xe87d;" glyph-name="favorite" d="M512 284.667l-62 56c-220 200-364 330-364 492 0 132 102 234 234 234 74 0 146-36 192-90 46 54 118 90 192 90 132 0 234-102 234-234 0-162-144-294-364-494z" />
<glyph unicode="&#xe87e;" glyph-name="favorite_border" d="M516 402.667c204 184 338 306 338 430 0 86-64 148-150 148-66 0-130-42-152-100h-80c-22 58-86 100-152 100-86 0-150-62-150-148 0-124 134-246 338-430l4-4zM704 1066.667c132 0 234-102 234-234 0-162-144-292-364-492l-62-56-62 54c-220 200-364 332-364 494 0 132 102 234 234 234 74 0 146-36 192-90 46 54 118 90 192 90z" />
<glyph unicode="&#xe888;" glyph-name="highlight_off" d="M512 340.667c188 0 342 154 342 342s-154 342-342 342-342-154-342-342 154-342 342-342zM512 1108.667c236 0 426-190 426-426s-190-426-426-426-426 190-426 426 190 426 426 426zM622 852.667l60-60-110-110 110-110-60-60-110 110-110-110-60 60 110 110-110 110 60 60 110-110z" />
<glyph unicode="&#xe896;" glyph-name="list" d="M298 896.667h598v-86h-598v86zM298 468.667v86h598v-86h-598zM298 640.667v84h598v-84h-598zM128 810.667v86h86v-86h-86zM128 468.667v86h86v-86h-86zM128 640.667v84h86v-84h-86z" />
<glyph unicode="&#xe8b3;" glyph-name="restore" d="M512 852.667h64v-180l150-90-32-52-182 110v212zM554 1066.667c212 0 384-172 384-384s-172-384-384-384c-106 0-200 42-270 112l60 62c54-54 128-88 210-88 166 0 300 132 300 298s-134 298-300 298-298-132-298-298h128l-172-172-4 6-166 166h128c0 212 172 384 384 384z" />
<glyph unicode="&#xe8b6;" glyph-name="search" d="M406 596.667c106 0 192 86 192 192s-86 192-192 192-192-86-192-192 86-192 192-192zM662 596.667l212-212-64-64-212 212v34l-12 12c-48-42-112-66-180-66-154 0-278 122-278 276s124 278 278 278 276-124 276-278c0-68-24-132-66-180l12-12h34z" />
<glyph unicode="&#xe8e6;" glyph-name="turned_in" d="M726 1066.667c46 0 84-40 84-86v-682l-298 128-298-128v682c0 46 38 86 84 86h428z" />
<glyph unicode="&#xe8e7;" glyph-name="turned_in_not" d="M726 426.667v554h-428v-554l214 94zM726 1066.667c46 0 84-40 84-86v-682l-298 128-298-128v682c0 46 38 86 84 86h428z" />
<glyph unicode="&#xe8eb;" glyph-name="view_carousel" d="M768 938.667h170v-470h-170v470zM86 468.667v470h170v-470h-170zM298 384.667v640h428v-640h-428z" />
<glyph unicode="&#xe8f4;" glyph-name="visibility" d="M512 810.667c70 0 128-58 128-128s-58-128-128-128-128 58-128 128 58 128 128 128zM512 468.667c118 0 214 96 214 214s-96 214-214 214-214-96-214-214 96-214 214-214zM512 1002.667c214 0 396-132 470-320-74-188-256-320-470-320s-396 132-470 320c74 188 256 320 470 320z" />
<glyph unicode="&#xe8f5;" glyph-name="visibility_off" d="M506 810.667h6c70 0 128-58 128-128v-8zM322 776.667c-14-28-24-60-24-94 0-118 96-214 214-214 34 0 66 10 94 24l-66 66c-8-2-18-4-28-4-70 0-128 58-128 128 0 10 2 20 4 28zM86 1012.667l54 54 756-756-54-54c-47.968 47.365-96.266 94.401-144 142-58-24-120-36-186-36-214 0-396 132-470 320 34 84 90 156 160 212-39.017 38.983-77.307 78.693-116 118zM512 896.667c-28 0-54-6-78-16l-92 92c52 20 110 30 170 30 214 0 394-132 468-320-32-80-82-148-146-202l-124 124c10 24 16 50 16 78 0 118-96 214-214 214z" />
<glyph unicode="&#xe900;" glyph-name="log-out" d="M384 341.334h-170.667c-25.6 0-42.667 17.067-42.667 42.667v597.333c0 25.6 17.067 42.667 42.667 42.667h170.667c25.6 0 42.667 17.067 42.667 42.667s-17.067 42.667-42.667 42.667h-170.667c-72.533 0-128-55.467-128-128v-597.333c0-72.533 55.467-128 128-128h170.667c25.6 0 42.667 17.067 42.667 42.667s-17.067 42.667-42.667 42.667zM934.4 665.6c4.267 8.533 4.267 21.333 0 34.133-4.267 4.267-4.267 8.533-8.533 12.8l-213.333 213.333c-17.067 17.067-42.667 17.067-59.733 0s-17.067-42.667 0-59.733l140.8-140.8h-409.6c-25.6 0-42.667-17.067-42.667-42.667s17.067-42.667 42.667-42.667h409.6l-140.8-140.8c-17.067-17.067-17.067-42.667 0-59.733 8.533-8.533 21.333-12.8 29.867-12.8s21.333 4.267 29.867 12.8l213.333 213.333c4.267 4.267 8.533 8.533 8.533 12.8z" />
<glyph unicode="&#xe901;" glyph-name="mail-envelope-closed" d="M170.080 887.235l247.52-215.235-247.581-215.287c-6.206 5.878-10.019 14.235-10.019 23.507v383.562c0 9.253 3.874 17.582 10.080 23.454zM885.981 887.287c6.206-5.878 10.019-14.235 10.019-23.507v-383.562c0-9.252-3.874-17.582-10.080-23.454l-247.52 215.235 247.581 215.287zM614.459 651.181l233.541-203.181h-640l233.541 203.181 86.459-75.181 86.459 75.181zM192.115 928c-35.41 0-64.115-28.624-64.115-63.81v-384.38c0-35.241 28.472-63.81 64.115-63.81h671.77c35.41 0 64.115 28.624 64.115 63.81v384.38c0 35.241-28.472 63.81-64.115 63.81h-671.77zM528 617.6l-320 278.4h640l-320-278.4z" />
<glyph unicode="&#xe902;" glyph-name="mail-envelope-closed2" d="M170.080 887.235l357.92-311.235 357.981 311.287c6.206-5.878 10.019-14.235 10.019-23.507v-383.562c0-17.821-14.371-32.219-32.098-32.219h-671.803c-18.053 0-32.098 14.425-32.098 32.219v383.562c0 9.253 3.874 17.582 10.080 23.454zM192.115 928c-35.41 0-64.115-28.624-64.115-63.81v-384.38c0-35.241 28.472-63.81 64.115-63.81h671.77c35.41 0 64.115 28.624 64.115 63.81v384.38c0 35.241-28.472 63.81-64.115 63.81h-671.77zM528 617.6l-320 278.4h640l-320-278.4z" />
<glyph unicode="&#xe903;" glyph-name="bus" horiz-adv-x="1056" d="M704 255.616c0-17.696 14.304-32 32-32h32c17.664 0 32 14.304 32 32v65.984h-96v-65.984zM256 255.616c0-17.696 14.304-32 32-32h32c17.696 0 32 14.304 32 32v65.984h-96v-65.984zM159.52 360.672c0-21.44 17.408-38.88 38.88-38.88h659.072c21.472 0 38.88 17.44 38.88 38.88 0 21.504 0 22.88 0 22.88h-736.832c0 0 0-1.376 0-22.88zM1024 863.616v64h-127.68l0.032 34.816c0 77.792-79.648 157.984-383.168 157.984-266.816 0-353.664-80.192-353.664-157.984v-34.816h-127.52v-64h-32v-128h32v-64h127.52v-255.168h736l0.704 479.168h95.776v-32h-32v-128h32v-32h-96v-32h128v64h32v128h-32zM159.52 703.616h-95.52v32h32v128h-32v32h95.52v-192zM400 1025.6h256c8.832 0 16-7.168 16-16s-7.168-16-16-16h-256c-8.832 0-16 7.168-16 16s7.168 16 16 16zM225.312 888.672c0 21.472 17.408 38.88 38.88 38.88h208.448c21.472 0 38.88-17.408 38.88-38.88v-114.656c0-21.504-17.408-38.912-38.88-38.912h-208.448c-21.472 0-38.88 17.408-38.88 38.912v114.656zM287.616 488.384c-32.224 0-58.304 26.112-58.304 58.304 0 32.256 26.080 58.304 58.304 58.304s58.336-26.048 58.336-58.304c0.032-32.192-26.112-58.304-58.336-58.304zM384 639.616h288v-32h-288v32zM673.024 481.824h-288.192v30.88h288.192v-30.88zM673.024 545.568h-288.192v30.88h288.192v-30.88zM768.256 486.368c-32.224 0-58.304 26.112-58.304 58.304s26.080 58.304 58.304 58.304 58.336-26.112 58.336-58.304-26.112-58.304-58.336-58.304zM832.16 774.016c0-21.504-17.408-38.912-38.912-38.912h-209.984c-21.504 0-38.912 17.408-38.912 38.912v114.656c0 21.472 17.408 38.88 38.912 38.88h209.984c21.504 0 38.912-17.408 38.912-38.88v-114.656z" />
<glyph unicode="&#xe904;" glyph-name="money-bag, sack-dollar, bag" d="M448.544 886.336h125.888v47.232h-125.888v-47.232zM573.504 870.624h-124.96c0 0-205.6-202.656-205.6-401.344 0-210.528 215.424-227.264 215.424-227.264s64.256-10.656 104.224 0c0 0 218.432 25.6 218.432 226.24 0.032 200.704-207.52 402.368-207.52 402.368zM582.752 444.064c-5.056-10.24-11.872-18.816-20.576-25.664-8.672-6.88-18.816-12.032-30.368-15.488-1.472-0.448-3.072-0.608-4.576-0.992v-34.944h-31.456v30.848c-0.384-0.032-0.768-0.096-1.152-0.096-8.928 0-17.216 0.704-24.896 2.144-7.648 1.472-14.4 3.232-20.288 5.248-5.888 2.048-10.784 4.192-14.688 6.432-3.936 2.24-6.784 4.224-8.512 5.952-1.76 1.728-2.976 4.224-3.712 7.488-0.704 3.296-1.088 7.968-1.088 14.112 0 4.128 0.128 7.584 0.416 10.4s0.672 5.056 1.312 6.816c0.608 1.76 1.376 2.976 2.368 3.712 0.992 0.704 2.176 1.088 3.488 1.088 1.888 0 4.512-1.088 7.904-3.296s7.744-4.64 13.088-7.296c5.344-2.688 11.68-5.088 19.104-7.328 7.392-2.176 15.968-3.296 25.696-3.296 6.4 0 12.128 0.768 17.184 2.304s9.376 3.68 12.896 6.496c3.552 2.816 6.24 6.272 8.096 10.4 1.888 4.16 2.816 8.736 2.816 13.856 0 5.856-1.632 10.88-4.8 15.104-3.2 4.192-7.392 7.904-12.512 11.2-5.12 3.264-10.944 6.304-17.472 9.184s-13.28 5.92-20.192 9.088c-6.944 3.2-13.664 6.816-20.192 10.912-6.528 4.064-12.384 8.896-17.504 14.56s-9.28 12.384-12.512 20.096c-3.2 7.712-4.768 16.992-4.768 27.776 0 12.416 2.304 23.296 6.88 32.672 4.608 9.376 10.816 17.184 18.592 23.36 7.808 6.176 16.992 10.816 27.584 13.888 5.44 1.568 11.072 2.72 16.832 3.456v33.12h31.456v-33.088c1.28-0.16 2.528-0.096 3.776-0.288 6.112-0.928 11.872-2.176 17.184-3.776 5.312-1.568 10.048-3.36 14.176-5.344s6.88-3.616 8.192-4.96c1.376-1.312 2.24-2.432 2.752-3.36 0.448-0.928 0.8-2.176 1.184-3.712 0.32-1.536 0.576-3.456 0.672-5.824 0.128-2.304 0.192-5.216 0.192-8.672 0-3.872-0.128-7.168-0.32-9.856-0.192-2.656-0.512-4.864-0.992-6.592-0.448-1.76-1.12-3.008-1.984-3.808s-1.984-1.184-3.488-1.184c-1.44 0-3.808 0.896-7.008 2.752-3.2 1.888-7.136 3.872-11.744 6.048-4.672 2.176-10.048 4.16-16.192 5.984-6.176 1.792-12.896 2.656-20.192 2.656-5.76 0-10.752-0.672-15.008-2.080-4.288-1.376-7.84-3.328-10.72-5.76-2.848-2.464-4.992-5.44-6.368-8.864-1.408-3.424-2.080-7.104-2.080-10.944 0-5.76 1.568-10.72 4.672-14.912s7.328-7.936 12.608-11.2c5.248-3.296 11.232-6.336 17.92-9.184 6.656-2.88 13.44-5.92 20.384-9.088 6.944-3.232 13.696-6.848 20.384-10.912s12.64-8.928 17.824-14.592 9.376-12.32 12.576-19.968c3.2-7.68 4.8-16.672 4.8-27.104-0.032-13.504-2.592-25.408-7.648-35.68zM572.512 949.312l63.936 157.408c0 0-40.32-33.472-63.936-33.472s-61.024 32.48-61.024 32.48-40.32-32.48-63.936-32.48c-23.584 0-61.984 31.488-61.984 31.488l64.928-155.424h122.016z" />
<glyph unicode="&#xe905;" glyph-name="profile-female, female, woman, user, profile, avatar" horiz-adv-x="1152" d="M711.040 520.768c-5.024 0.768-10.144-1.216-13.6-4.96-3.488-3.712-4.992-8.896-4.032-13.92 8.832-46.4 38.56-110.080 129.824-149.728 10.816-4.672 27.52-8.32 48.704-12.896 79.296-17.152 211.904-45.888 244.48-167.424 1.92-7.136 8.384-11.84 15.456-11.84 1.376 0 2.752 0.192 4.16 0.544 8.544 2.304 13.6 11.072 11.328 19.616-37.664 140.384-187.904 172.928-268.64 190.4-18.688 4.064-34.848 7.552-42.752 11.008-54.848 23.808-90.272 59.136-105.632 105.152 152.384-11.328 221.376 49.376 224.416 52.128 3.776 3.424 5.728 8.512 5.152 13.6s-3.52 9.6-7.968 12.16c-87.936 50.24-87.936 223.84-87.936 289.216 0 182.816-123.136 327.744-280.992 330.016-0.448 0.032-3.872 0.096-4.512 0.096 0 0 0 0-0.032 0-160.16-0.896-290.464-145.984-290.464-323.456 0-65.376 0-239.008-87.936-289.216-4.64-2.656-7.616-7.424-8.032-12.736-0.384-5.312 1.92-10.496 6.112-13.792 4.416-3.424 102.016-78.112 222.112-55.424-16.064-44.096-51.008-78.016-104.256-101.152-7.712-3.36-23.072-7.040-40.864-11.264-81.28-19.328-232.608-55.328-270.496-196.704-2.272-8.576 2.784-17.312 11.328-19.616 8.672-2.144 17.312 2.816 19.616 11.328 32.928 123.008 166.944 154.848 246.976 173.92 20.064 4.768 35.904 8.544 46.208 12.992 91.264 39.648 120.96 103.328 129.824 149.728 1.056 5.536-0.864 11.232-5.088 14.944-4.192 3.744-9.984 5.024-15.424 3.328-86.624-27.264-166.656 10.24-201.632 31.040 83.552 69.952 83.552 230.944 83.552 302.624 0 159.904 116.032 290.656 259.84 291.52 0.16 0 3.264-0.192 3.392-0.192 141.824-2.016 248.768-130.112 248.768-297.984 0-71.712 0-233.056 83.904-303.008-28.896-16.512-94.784-43.232-204.864-30.048z" />
<glyph unicode="&#xe906;" glyph-name="profile-male, persona, profile2, male, user2, avatar2" horiz-adv-x="1152" d="M16 160.544c8.576-2.144 17.344 2.816 19.584 11.328 32.96 122.976 166.912 154.848 246.976 173.92 20.064 4.768 35.904 8.544 46.208 12.992 91.2 39.584 120.928 103.264 129.824 149.728 1.088 5.6-0.928 11.36-5.28 15.136-47.488 40.992-87.552 102.528-112.832 173.312-0.704 2.016-1.824 3.872-3.296 5.472-33.44 36.352-52.64 74.784-52.64 105.408 0 17.888 6.752 29.888 21.952 38.944 4.64 2.784 7.552 7.68 7.776 13.056 7.072 163.008 123.168 291.328 265.568 292.16 0.16 0 3.264-0.224 3.424-0.224 143.104-1.984 258.464-133.056 262.592-298.368 0.128-4.576 2.176-8.864 5.696-11.808 10.016-8.48 14.688-19.232 14.688-33.824 0-25.632-13.664-57.152-38.432-88.704-1.184-1.504-2.080-3.232-2.688-5.056-25.6-81.152-71.552-152.8-126.016-196.64-4.608-3.712-6.784-9.664-5.696-15.456 8.896-46.432 38.624-110.080 129.824-149.728 10.784-4.672 27.52-8.32 48.736-12.896 79.264-17.152 211.904-45.92 244.448-167.424 1.92-7.136 8.384-11.84 15.424-11.84 1.376 0 2.752 0.192 4.16 0.544 8.544 2.304 13.6 11.072 11.328 19.616-37.6 140.384-187.872 172.928-268.576 190.4-18.72 4.064-34.88 7.552-42.752 11.008-59.52 25.856-96.192 65.248-109.152 117.28 55.264 47.456 101.504 120.672 127.936 202.784 28.064 36.48 43.488 74.048 43.488 106.144 0 21.408-6.912 39.264-20.608 53.216-7.616 179.328-135.584 320.544-294.4 322.816l-4.768 0.064c-155.936-0.832-284.448-138.336-295.68-314.56-20.032-14.72-30.208-35.36-30.208-61.568 0-37.856 21.408-83.136 58.88-124.672 25.888-71.136 66.016-133.632 113.792-177.376-12.896-52.224-49.6-91.744-109.248-117.632-7.712-3.36-23.072-7.040-40.864-11.264-81.312-19.328-232.608-55.328-270.496-196.704-2.272-8.544 2.784-17.28 11.328-19.584z" />
<glyph unicode="&#xe907;" glyph-name="microsoftexcel" d="M1004.928 1051.648h-343.040v-63.488h101.12v-100.437h-101.12v-32h101.12v-100.565h-101.12v-32.896h101.12v-95.104h-101.12v-38.101h101.12v-95.317h-101.12v-38.101h101.12v-95.872h-101.12v-69.931h343.040c5.419 1.621 9.941 8.021 13.568 19.115 3.627 11.179 5.504 20.267 5.504 27.136v703.957c0 5.461-1.877 8.747-5.504 9.899-3.627 1.109-8.149 1.707-13.568 1.707zM960.427 359.851h-164.565v95.787h164.565v-95.787zM960.427 493.739h-164.565v95.36h164.565v-95.36zM960.427 627.2h-164.565v94.677h164.565v-94.677zM960.427 755.2h-164.565v100.437h164.565v-100.437zM960.427 888.277h-164.565v99.84h164.565v-99.84zM0 1067.477v-793.643l604.16-104.491v1005.312l-604.16-107.179zM358.101 467.115c-2.304 6.229-13.141 32.683-32.341 79.488-19.157 46.763-30.72 73.984-34.091 81.749h-1.067l-64.811-154.24-86.613 5.845 102.741 192-94.080 192 88.32 4.651 58.368-150.229h1.152l65.92 157.056 91.264 5.76-108.672-207.787 112-211.968-98.091 5.675z" />
<glyph unicode="&#xe908;" glyph-name="long-arrow-up3" horiz-adv-x="439" d="M437.143 888.572c-2.857-6.286-9.143-10.857-16.571-10.857h-128v-713.143c0-10.286-8-18.286-18.286-18.286h-109.714c-10.286 0-18.286 8-18.286 18.286v713.143h-128c-7.429 0-13.714 4-16.571 10.857s-1.714 14.286 2.857 20l200 219.429c3.429 3.429 8 5.714 13.143 5.714v0c5.143 0 10.286-2.286 13.714-5.714l202.857-219.429c4.571-5.714 5.714-13.143 2.857-20z" />
<glyph unicode="&#xe909;" glyph-name="long-arrow-down3" horiz-adv-x="439" d="M437.143 428c2.857-6.857 1.714-14.286-2.857-20l-200-219.429c-3.429-3.429-8-5.714-13.143-5.714v0c-5.143 0-10.286 2.286-13.714 5.714l-202.857 219.429c-4.571 5.714-5.714 13.143-2.857 20 2.857 6.286 9.143 10.857 16.571 10.857h128v713.143c0 10.286 8 18.286 18.286 18.286h109.714c10.286 0 18.286-8 18.286-18.286v-713.143h128c7.429 0 13.714-4 16.571-10.857z" />
<glyph unicode="&#xe90a;" glyph-name="arrow-down" d="M460.8 349.594l-310.835 310.835-72.397-72.397 434.432-434.432 434.432 434.432-72.397 72.397-310.835-310.835v828.006h-102.4z" />
<glyph unicode="&#xe90b;" glyph-name="arrow-up" d="M460.8 981.606l-310.835-310.835-72.397 72.397 434.432 434.432 434.432-434.432-72.397-72.397-310.835 310.835v-828.006h-102.4v828.006z" />
<glyph unicode="&#xe90c;" glyph-name="office" d="M0 192h512v1024h-512v-1024zM320 1088h128v-128h-128v128zM320 832h128v-128h-128v128zM320 576h128v-128h-128v128zM64 1088h128v-128h-128v128zM64 832h128v-128h-128v128zM64 576h128v-128h-128v128zM576 896h448v-64h-448zM576 192h128v256h192v-256h128v576h-448z" />
<glyph unicode="&#xe911;" glyph-name="music" d="M960 1216h64v-736c0-88.366-100.29-160-224-160s-224 71.634-224 160c0 88.368 100.29 160 224 160 62.684 0 119.342-18.4 160-48.040v368.040l-512-113.778v-494.222c0-88.366-100.288-160-224-160s-224 71.634-224 160c0 88.368 100.288 160 224 160 62.684 0 119.342-18.4 160-48.040v624.040l576 128z" />
<glyph unicode="&#xe921;" glyph-name="library" horiz-adv-x="1088" d="M1024 256v64h-64v384h64v64h-192v-64h64v-384h-192v384h64v64h-192v-64h64v-384h-192v384h64v64h-192v-64h64v-384h-192v384h64v64h-192v-64h64v-384h-64v-64h-64v-64h1088v64h-64zM512 1216h64l512-320v-64h-1088v64l512 320z" />
<glyph unicode="&#xe923;" glyph-name="update" d="M534 852.667v-180l148-90-30-52-182 110v212h64zM896 762.667h-290l118 120c-116 116-306 120-422 4s-116-300 0-416 306-116 422 0c58 58 86 124 86 208h86c0-84-36-194-112-268-150-148-394-148-544 0s-150 388 0 536 390 148 540 0l116 120v-304z" />
<glyph unicode="&#xe937;" glyph-name="barcode2" d="M0 1088h128v-640h-128zM192 1088h64v-640h-64zM320 1088h64v-640h-64zM512 1088h64v-640h-64zM768 1088h64v-640h-64zM960 1088h64v-640h-64zM640 1088h32v-640h-32zM448 1088h32v-640h-32zM864 1088h32v-640h-32zM0 384h64v-64h-64zM192 384h64v-64h-64zM320 384h64v-64h-64zM640 384h64v-64h-64zM960 384h64v-64h-64zM768 384h128v-64h-128zM448 384h128v-64h-128z" />
<glyph unicode="&#xe938;" glyph-name="qrcode" d="M320 1152h-256v-256h256v256zM384 1216v0-384h-384v384h384zM128 1088h128v-128h-128zM960 1152h-256v-256h256v256zM1024 1216v0-384h-384v384h384zM768 1088h128v-128h-128zM320 512h-256v-256h256v256zM384 576v0-384h-384v384h384zM128 448h128v-128h-128zM448 1216h64v-64h-64zM512 1152h64v-64h-64zM448 1088h64v-64h-64zM512 1024h64v-64h-64zM448 960h64v-64h-64zM512 896h64v-64h-64zM448 832h64v-64h-64zM448 704h64v-64h-64zM512 640h64v-64h-64zM448 576h64v-64h-64zM512 512h64v-64h-64zM448 448h64v-64h-64zM512 384h64v-64h-64zM448 320h64v-64h-64zM512 256h64v-64h-64zM960 704h64v-64h-64zM64 704h64v-64h-64zM128 768h64v-64h-64zM0 768h64v-64h-64zM256 768h64v-64h-64zM320 704h64v-64h-64zM384 768h64v-64h-64zM576 704h64v-64h-64zM640 768h64v-64h-64zM704 704h64v-64h-64zM768 768h64v-64h-64zM832 704h64v-64h-64zM896 768h64v-64h-64zM960 576h64v-64h-64zM576 576h64v-64h-64zM640 640h64v-64h-64zM704 576h64v-64h-64zM832 576h64v-64h-64zM896 640h64v-64h-64zM960 448h64v-64h-64zM576 448h64v-64h-64zM640 512h64v-64h-64zM768 512h64v-64h-64zM832 448h64v-64h-64zM896 512h64v-64h-64zM960 320h64v-64h-64zM640 384h64v-64h-64zM704 320h64v-64h-64zM768 384h64v-64h-64zM832 320h64v-64h-64zM640 256h64v-64h-64zM768 256h64v-64h-64zM896 256h64v-64h-64z" />
<glyph unicode="&#xe946;" glyph-name="pushpin" d="M544 1216l-96-96 96-96-224-256h-224l176-176-272-360.616v-39.384h39.384l360.616 272 176-176v224l256 224 96-96 96 96-480 480zM448 672l-64 64 224 224 64-64-224-224z" />
<glyph unicode="&#xe962;" glyph-name="floppy-disk" d="M896 1216h-896v-1024h1024v896l-128 128zM512 1088h128v-256h-128v256zM896 320h-768v768h64v-320h576v320h74.978l53.022-53.018v-714.982z" />
<glyph unicode="&#xe96c;" glyph-name="bubbles" horiz-adv-x="1152" d="M1088 314.834c0-45.5 26.028-84.908 64-104.184v-15.938c-10.626-1.454-21.472-2.224-32.5-2.224-68.008 0-129.348 28.528-172.722 74.264-26.222-6.982-54.002-10.752-82.778-10.752-159.058 0-288 114.616-288 256s128.942 256 288 256c159.058 0 288-114.616 288-256 0-55.348-19.764-106.592-53.356-148.466-6.824-14.824-10.644-31.312-10.644-48.7zM512 1216c278.458 0 504.992-180.614 511.836-405.52-49.182 21.92-103.586 33.52-159.836 33.52-95.56 0-185.816-33.446-254.138-94.178-70.846-62.972-109.862-147.434-109.862-237.822 0-44.672 9.544-87.888 27.736-127.788-5.228-0.126-10.468-0.212-15.736-0.212-27.156 0-53.81 1.734-79.824 5.044-109.978-109.978-241.25-129.7-368.176-132.596v26.916c68.536 33.578 128 94.74 128 164.636 0 9.754-0.758 19.33-2.164 28.696-115.796 76.264-189.836 192.754-189.836 323.304 0 229.75 229.23 416 512 416z" />
<glyph unicode="&#xe96f;" glyph-name="bubbles3" horiz-adv-x="1152" d="M1088 314.834c0-45.5 26.028-84.908 64-104.184v-15.938c-10.626-1.454-21.472-2.224-32.5-2.224-68.008 0-129.348 28.528-172.722 74.264-26.222-6.982-54.002-10.752-82.778-10.752-159.058 0-288 114.616-288 256s128.942 256 288 256c159.058 0 288-114.616 288-256 0-55.348-19.764-106.592-53.356-148.466-6.824-14.824-10.644-31.312-10.644-48.7zM230.678 994.814c-66.214-53.798-102.678-122.984-102.678-194.814 0-40.298 11.188-79.378 33.252-116.15 22.752-37.92 56.982-72.586 98.988-100.252 30.356-19.992 50.78-51.948 56.176-87.894 1.8-11.984 2.928-24.088 3.37-36.124 7.47 6.194 14.75 12.846 21.88 19.976 24.154 24.152 56.78 37.49 90.502 37.49 5.368 0 10.762-0.336 16.156-1.024 20.948-2.662 42.344-4.016 63.594-4.020v-128c-27.128 0.002-53.754 1.738-79.742 5.042-109.978-109.978-241.25-129.7-368.176-132.596v26.916c68.536 33.578 128 94.74 128 164.636 0 9.754-0.758 19.33-2.164 28.696-115.796 76.264-189.836 192.754-189.836 323.304 0 229.75 229.23 416 512 416 278.458 0 504.992-180.614 511.836-405.52-41.096 18.316-85.84 29.422-132.262 32.578-11.53 56.068-45.402 108.816-98.252 151.756-35.322 28.698-76.916 51.39-123.628 67.444-49.706 17.080-102.76 25.742-157.694 25.742-54.932 0-107.988-8.662-157.694-25.742-46.712-16.054-88.306-38.744-123.628-67.444z" />
<glyph unicode="&#xe972;" glyph-name="users3" horiz-adv-x="1152" d="M768 445.388v52.78c70.498 39.728 128 138.772 128 237.832 0 159.058 0 288-192 288s-192-128.942-192-288c0-99.060 57.502-198.104 128-237.832v-52.78c-217.102-17.748-384-124.42-384-253.388h896c0 128.968-166.898 235.64-384 253.388zM327.196 420.672c55.31 36.15 124.080 63.636 199.788 80.414-15.054 17.784-28.708 37.622-40.492 59.020-30.414 55.234-46.492 116.058-46.492 175.894 0 86.042 0 167.31 30.6 233.762 29.706 64.504 83.128 104.496 159.222 119.488-16.914 76.48-61.94 126.75-181.822 126.75-192 0-192-128.942-192-288 0-99.060 57.502-198.104 128-237.832v-52.78c-217.102-17.748-384-124.42-384-253.388h279.006c14.518 12.91 30.596 25.172 48.19 36.672z" />
<glyph unicode="&#xe97a;" glyph-name="spinner" d="M384 1088c0 70.692 57.308 128 128 128s128-57.308 128-128c0-70.692-57.308-128-128-128s-128 57.308-128 128zM655.53 975.53c0 70.692 57.308 128 128 128s128-57.308 128-128c0-70.692-57.308-128-128-128s-128 57.308-128 128zM832 704c0 35.346 28.654 64 64 64s64-28.654 64-64c0-35.346-28.654-64-64-64s-64 28.654-64 64zM719.53 432.47c0 35.346 28.654 64 64 64s64-28.654 64-64c0-35.346-28.654-64-64-64s-64 28.654-64 64zM448.002 320c0 0 0 0 0 0 0 35.346 28.654 64 64 64s64-28.654 64-64c0 0 0 0 0 0 0-35.346-28.654-64-64-64s-64 28.654-64 64zM176.472 432.47c0 0 0 0 0 0 0 35.346 28.654 64 64 64s64-28.654 64-64c0 0 0 0 0 0 0-35.346-28.654-64-64-64s-64 28.654-64 64zM144.472 975.53c0 0 0 0 0 0 0 53.019 42.981 96 96 96s96-42.981 96-96c0 0 0 0 0 0 0-53.019-42.981-96-96-96s-96 42.981-96 96zM56 704c0 39.765 32.235 72 72 72s72-32.235 72-72c0-39.765-32.235-72-72-72s-72 32.235-72 72z" />
<glyph unicode="&#xe97f;" glyph-name="spinner6" d="M384 1088c0 70.692 57.308 128 128 128s128-57.308 128-128c0-70.692-57.308-128-128-128s-128 57.308-128 128zM790.994 704c0 0 0 0 0 0 0 57.993 47.013 105.006 105.006 105.006s105.006-47.013 105.006-105.006c0 0 0 0 0 0 0-57.993-47.013-105.006-105.006-105.006s-105.006 47.013-105.006 105.006zM688.424 432.47c0 52.526 42.58 95.106 95.106 95.106s95.106-42.58 95.106-95.106c0-52.526-42.58-95.106-95.106-95.106s-95.106 42.58-95.106 95.106zM425.862 320c0 47.573 38.565 86.138 86.138 86.138s86.138-38.565 86.138-86.138c0-47.573-38.565-86.138-86.138-86.138s-86.138 38.565-86.138 86.138zM162.454 432.47c0 43.088 34.93 78.018 78.018 78.018s78.018-34.93 78.018-78.018c0-43.088-34.93-78.018-78.018-78.018s-78.018 34.93-78.018 78.018zM57.338 704c0 39.026 31.636 70.662 70.662 70.662s70.662-31.636 70.662-70.662c0-39.026-31.636-70.662-70.662-70.662s-70.662 31.636-70.662 70.662zM176.472 975.528c0 0 0 0 0 0 0 35.346 28.654 64 64 64s64-28.654 64-64c0 0 0 0 0 0 0-35.346-28.654-64-64-64s-64 28.654-64 64zM899.464 975.528c0-64.024-51.906-115.934-115.936-115.934-64.024 0-115.936 51.91-115.936 115.934 0 64.032 51.912 115.934 115.936 115.934 64.030 0 115.936-51.902 115.936-115.934z" />
<glyph unicode="&#xe982;" glyph-name="spinner9" d="M512 1216c-278.748 0-505.458-222.762-511.848-499.974 5.92 241.864 189.832 435.974 415.848 435.974 229.75 0 416-200.576 416-448 0-53.020 42.98-96 96-96s96 42.98 96 96c0 282.77-229.23 512-512 512zM512 192c278.748 0 505.458 222.762 511.848 499.974-5.92-241.864-189.832-435.974-415.848-435.974-229.75 0-416 200.576-416 448 0 53.020-42.98 96-96 96s-96-42.98-96-96c0-282.77 229.23-512 512-512z" />
<glyph unicode="&#xe984;" glyph-name="spinner11" d="M1024 832h-384l143.53 143.53c-72.53 72.526-168.96 112.47-271.53 112.47s-199-39.944-271.53-112.47c-72.526-72.53-112.47-168.96-112.47-271.53s39.944-199 112.47-271.53c72.53-72.526 168.96-112.47 271.53-112.47s199 39.944 271.528 112.472c6.056 6.054 11.86 12.292 17.456 18.668l96.32-84.282c-93.846-107.166-231.664-174.858-385.304-174.858-282.77 0-512 229.23-512 512s229.23 512 512 512c141.386 0 269.368-57.326 362.016-149.984l149.984 149.984v-384z" />
<glyph unicode="&#xe99e;" glyph-name="trophy" d="M832 1024v128h-640v-128h-192v-128c0-106.038 85.958-192 192-192 20.076 0 39.43 3.086 57.62 8.802 46.174-66.008 116.608-113.796 198.38-130.396v-198.406h-64c-70.694 0-128-57.306-128-128h512c0 70.694-57.306 128-128 128h-64v198.406c81.772 16.6 152.206 64.386 198.38 130.396 18.19-5.716 37.544-8.802 57.62-8.802 106.042 0 192 85.962 192 192v128h-192zM192 780c-63.962 0-116 52.038-116 116v64h116v-64c0-40.186 7.43-78.632 20.954-114.068-6.802-1.246-13.798-1.932-20.954-1.932zM948 896c0-63.962-52.038-116-116-116-7.156 0-14.152 0.686-20.954 1.932 13.524 35.436 20.954 73.882 20.954 114.068v64h116v-64z" />
<glyph unicode="&#xe9ce;" glyph-name="eye4" d="M512 1024c-223.318 0-416.882-130.042-512-320 95.118-189.958 288.682-320 512-320 223.312 0 416.876 130.042 512 320-95.116 189.958-288.688 320-512 320zM764.45 854.296c60.162-38.374 111.142-89.774 149.434-150.296-38.292-60.522-89.274-111.922-149.436-150.296-75.594-48.218-162.89-73.704-252.448-73.704-89.56 0-176.858 25.486-252.452 73.704-60.158 38.372-111.138 89.772-149.432 150.296 38.292 60.524 89.274 111.924 149.434 150.296 3.918 2.5 7.876 4.922 11.86 7.3-9.96-27.328-15.41-56.822-15.41-87.596 0-141.382 114.616-256 256-256 141.382 0 256 114.618 256 256 0 30.774-5.452 60.268-15.408 87.598 3.978-2.378 7.938-4.802 11.858-7.302v0zM512 800c0-53.020-42.98-96-96-96s-96 42.98-96 96 42.98 96 96 96 96-42.982 96-96z" />
<glyph unicode="&#xe9d1;" glyph-name="eye-blocked" d="M945.942 1201.942c-18.746 18.744-49.136 18.744-67.882 0l-202.164-202.164c-51.938 15.754-106.948 24.222-163.896 24.222-223.318 0-416.882-130.042-512-320 41.122-82.124 100.648-153.040 173.022-207.096l-158.962-158.962c-18.746-18.746-18.746-49.136 0-67.882 9.372-9.374 21.656-14.060 33.94-14.060s24.568 4.686 33.942 14.058l864 864c18.744 18.746 18.744 49.138 0 67.884zM416 896c42.24 0 78.082-27.294 90.92-65.196l-121.724-121.724c-37.902 12.838-65.196 48.68-65.196 90.92 0 53.020 42.98 96 96 96zM110.116 704c38.292 60.524 89.274 111.924 149.434 150.296 3.918 2.5 7.876 4.922 11.862 7.3-9.962-27.328-15.412-56.822-15.412-87.596 0-54.89 17.286-105.738 46.7-147.418l-60.924-60.924c-52.446 36.842-97.202 83.882-131.66 138.342zM768 774c0 27.166-4.256 53.334-12.102 77.898l-321.808-321.808c24.568-7.842 50.742-12.090 77.91-12.090 141.382 0 256 114.618 256 256zM830.026 926.026l-69.362-69.362c1.264-0.786 2.53-1.568 3.786-2.368 60.162-38.374 111.142-89.774 149.434-150.296-38.292-60.522-89.274-111.922-149.436-150.296-75.594-48.218-162.89-73.704-252.448-73.704-38.664 0-76.902 4.76-113.962 14.040l-76.894-76.894c59.718-21.462 123.95-33.146 190.856-33.146 223.31 0 416.876 130.042 512 320-45.022 89.916-112.118 166.396-193.974 222.026z" />
<glyph unicode="&#xea14;" glyph-name="exit" d="M768 576v128h-320v128h320v128l192-192zM704 640v-256h-320v-192l-384 192v832h704v-320h-64v256h-512l256-128v-576h256v192z" />
<glyph unicode="&#xea2e;" glyph-name="loop2" d="M889.68 1049.68c-93.608 102.216-228.154 166.32-377.68 166.32-282.77 0-512-229.23-512-512h96c0 229.75 186.25 416 416 416 123.020 0 233.542-53.418 309.696-138.306l-149.696-149.694h352v352l-134.32-134.32zM928 704c0-229.75-186.25-416-416-416-123.020 0-233.542 53.418-309.694 138.306l149.694 149.694h-352v-352l134.32 134.32c93.608-102.216 228.154-166.32 377.68-166.32 282.77 0 512 229.23 512 512h-96z" />
<glyph unicode="&#xea71;" glyph-name="table2" d="M0 1152v-896h1024v896h-1024zM384 576v192h256v-192h-256zM640 512v-192h-256v192h256zM640 1024v-192h-256v192h256zM320 1024v-192h-256v192h256zM64 768h256v-192h-256v192zM704 768h256v-192h-256v192zM704 832v192h256v-192h-256zM64 512h256v-192h-256v192zM704 320v192h256v-192h-256z" />
<glyph unicode="&#xea77;" glyph-name="paragraph-left" d="M0 1152h1024v-128h-1024zM0 960h640v-128h-640zM0 576h640v-128h-640zM0 768h1024v-128h-1024zM0 384h1024v-128h-1024z" />
<glyph unicode="&#xea78;" glyph-name="paragraph-center" d="M0 1152h1024v-128h-1024zM192 960h640v-128h-640zM192 576h640v-128h-640zM0 768h1024v-128h-1024zM0 384h1024v-128h-1024z" />
<glyph unicode="&#xea79;" glyph-name="paragraph-right" d="M0 1152h1024v-128h-1024zM384 960h640v-128h-640zM384 576h640v-128h-640zM0 768h1024v-128h-1024zM0 384h1024v-128h-1024z" />
<glyph unicode="&#xea7a;" glyph-name="paragraph-justify" d="M0 1152h1024v-128h-1024zM0 960h1024v-128h-1024zM0 768h1024v-128h-1024zM0 576h1024v-128h-1024zM0 384h1024v-128h-1024z" />
<glyph unicode="&#xea7b;" glyph-name="indent-increase" d="M0 1152h1024v-128h-1024zM384 960h640v-128h-640zM384 768h640v-128h-640zM384 576h640v-128h-640zM0 384h1024v-128h-1024zM0 512v384l256-192z" />
<glyph unicode="&#xea7c;" glyph-name="indent-decrease" d="M0 1152h1024v-128h-1024zM384 960h640v-128h-640zM384 768h640v-128h-640zM384 576h640v-128h-640zM0 384h1024v-128h-1024zM256 896v-384l-256 192z" />
<glyph unicode="&#xeabe;" glyph-name="appleinc" d="M791.498 671.908c-1.294 129.682 105.758 191.876 110.542 194.966-60.152 88.020-153.85 100.078-187.242 101.472-79.742 8.074-155.596-46.948-196.066-46.948-40.368 0-102.818 45.754-168.952 44.552-86.916-1.292-167.058-50.538-211.812-128.38-90.304-156.698-23.126-388.84 64.89-515.926 43.008-62.204 94.292-132.076 161.626-129.58 64.842 2.588 89.362 41.958 167.756 41.958s100.428-41.958 169.050-40.67c69.774 1.296 113.982 63.398 156.692 125.796 49.39 72.168 69.726 142.038 70.924 145.626-1.548 0.706-136.060 52.236-137.408 207.134zM662.562 1052.478c35.738 43.358 59.86 103.512 53.28 163.522-51.478-2.096-113.878-34.29-150.81-77.55-33.142-38.376-62.148-99.626-54.374-158.436 57.466-4.484 116.128 29.204 151.904 72.464z" />
<glyph unicode="&#xeac0;" glyph-name="android2" d="M896 832c-35.2 0-64-28.8-64-64v-256c0-35.2 28.8-64 64-64s64 28.8 64 64v256c0 35.2-28.8 64-64 64zM128 832c-35.2 0-64-28.8-64-64v-256c0-35.2 28.8-64 64-64s64 28.8 64 64v256c0 35.2-28.802 64-64 64zM224 480c0-53.020 42.98-96 96-96v0-128c0-35.2 28.8-64 64-64s64 28.8 64 64v128h128v-128c0-35.2 28.8-64 64-64s64 28.8 64 64v128c53.020 0 96 42.98 96 96v352h-576v-352zM798.216 895.998c-9.716 87.884-59.004 163.792-129.62 209.646l32.024 64.046c7.904 15.806 1.496 35.028-14.31 42.932s-35.030 1.496-42.932-14.312l-32.142-64.286-8.35 3.316c-28.568 9.502-59.122 14.66-90.886 14.66-31.762 0-62.316-5.158-90.888-14.656l-8.348-3.316-32.142 64.282c-7.904 15.808-27.128 22.212-42.932 14.312-15.808-7.904-22.214-27.126-14.312-42.932l32.022-64.046c-70.616-45.852-119.904-121.762-129.622-209.644v-32h574.222v31.998h-1.784zM416 960c-17.674 0-32 14.328-32 32 0 17.648 14.288 31.958 31.93 31.996 0.032 0 0.062-0.002 0.094-0.002 0.018 0 0.036 0.002 0.052 0.002 17.638-0.042 31.924-14.35 31.924-31.996 0-17.672-14.326-32-32-32zM608 960c-17.674 0-32 14.328-32 32 0 17.646 14.286 31.954 31.924 31.996 0.016 0 0.034-0.002 0.050-0.002 0.032 0 0.064 0.002 0.096 0.002 17.64-0.038 31.93-14.348 31.93-31.996 0-17.672-14.326-32-32-32z" />
<glyph unicode="&#xead9;" glyph-name="chrome" d="M258.278 769.458l-146.532 253.802c93.818 117.464 238.234 192.74 400.254 192.74 187.432 0 351.31-100.736 440.532-251h-417.77c-7.504 0.65-15.092 1-22.762 1-121.874 0-224.578-83.644-253.722-196.542zM695.306 891h293.46c22.74-57.93 35.234-121.004 35.234-187 0-280.826-226.1-508.804-506.186-511.926l209.394 362.678c29.48 42.378 46.792 93.826 46.792 149.248 0 73.17-30.164 139.42-78.694 187zM326 704c0 102.56 83.44 186 186 186s186-83.44 186-186c0-102.56-83.44-186-186-186s-186 83.44-186 186zM582.182 451.558l-146.578-253.878c-246.532 36.884-435.604 249.516-435.604 506.32 0 91.218 23.884 176.846 65.696 251.024l209.030-362.054c41.868-89.112 132.476-150.97 237.274-150.97 24.3 0 47.836 3.34 70.182 9.558z" />
<glyph unicode="&#xeada;" glyph-name="firefox" d="M1022.526 881.86l-11.86-76.080c0 0-16.954 140.856-37.732 193.514-31.846 80.688-46.014 80.040-46.108 79.922 21.33-54.204 17.462-83.324 17.462-83.324s-37.792 102.998-137.712 135.768c-110.686 36.282-170.57 26.364-177.488 24.486-1.050 0.008-2.064 0.010-3.030 0.010 0.818-0.062 1.612-0.146 2.426-0.212-0.034-0.020-0.090-0.042-0.082-0.052 0.45-0.548 122.306-21.302 143.916-50.996 0 0-51.76 0-103.272-14.842-2.328-0.666 189.524-23.964 228.746-215.674 0 0-21.030 43.876-47.040 51.328 17.106-52.036 12.714-150.776-3.576-199.85-2.096-6.312-4.24 27.282-36.328 41.75 10.28-73.646-0.616-190.456-51.708-222.632-3.982-2.504 32.030 115.31 7.242 69.762-142.708-218.802-311.404-100.972-387.248-49.11 38.866-8.462 112.654 1.318 145.314 25.612 0.042 0.030 0.078 0.056 0.118 0.086 35.468 24.252 56.472 41.964 75.334 37.772 18.874-4.214 31.438 14.726 16.78 31.53-14.676 16.838-50.314 39.978-98.524 27.366-34-8.904-76.134-46.522-140.448-8.432-49.364 29.25-54.012 53.546-54.45 70.376 1.218 5.966 2.754 11.536 4.576 16.624 5.682 15.87 22.912 20.658 32.494 24.438 16.256-2.792 30.262-7.862 44.968-15.406 0.19 4.894 0.252 11.39-0.018 18.76 1.41 2.802 0.538 11.252-1.722 21.58-1.302 10.308-3.42 20.974-6.752 30.692 0.012 0.002 0.020 0.010 0.030 0.014 0.056 0.018 0.108 0.040 0.156 0.070 0.078 0.044 0.146 0.112 0.208 0.19 0.012 0.020 0.030 0.034 0.044 0.052 0.082 0.124 0.154 0.272 0.198 0.466 1.020 4.618 12.022 13.524 25.718 23.1 12.272 8.58 26.702 17.696 38.068 24.752 10.060 6.248 17.72 10.882 19.346 12.098 0.618 0.466 1.358 1.012 2.164 1.636 0.15 0.116 0.3 0.232 0.454 0.354 0.094 0.074 0.19 0.148 0.286 0.226 5.41 4.308 13.484 12.448 15.178 29.578 0.004 0.042 0.010 0.080 0.012 0.122 0.050 0.504 0.092 1.014 0.13 1.534 0.028 0.362 0.050 0.726 0.072 1.096 0.014 0.284 0.032 0.566 0.044 0.856 0.030 0.674 0.050 1.364 0.060 2.064 0 0.040 0.002 0.076 0.004 0.116 0.022 1.658-0.006 3.386-0.104 5.202-0.054 1.014-0.126 1.93-0.298 2.762-0.008 0.044-0.018 0.092-0.028 0.136-0.018 0.082-0.036 0.164-0.058 0.244-0.036 0.146-0.076 0.292-0.122 0.43-0.006 0.018-0.010 0.032-0.016 0.046-0.052 0.16-0.112 0.314-0.174 0.464-0.004 0.006-0.004 0.010-0.006 0.016-1.754 4.108-8.32 5.658-35.442 6.118-0.026 0.002-0.050 0.002-0.076 0.002v0c-11.066 0.188-25.538 0.194-44.502 0.118-33.25-0.134-51.628 32.504-57.494 45.132 8.040 44.46 31.276 76.142 69.45 97.626 0.722 0.406 0.58 0.742-0.274 0.978 7.464 4.514-90.246 0.124-135.186-57.036-39.888 9.914-74.654 9.246-104.616 2.214-5.754 0.162-12.924 0.88-21.434 2.652-19.924 18.056-48.448 51.402-49.976 91.208 0 0-0.092-0.072-0.252-0.204-0.020 0.382-0.056 0.76-0.072 1.142 0 0-60.716-46.664-51.628-173.882-0.022-2.036-0.064-3.986-0.12-5.874-16.432-22.288-24.586-41.020-25.192-45.156-14.56-29.644-29.334-74.254-41.356-141.98 0 0 8.408 26.666 25.284 56.866-12.412-38.022-22.164-97.156-16.436-185.856 0 0 1.514 19.666 6.874 47.994 4.186-55.010 22.518-122.924 68.858-202.788 88.948-153.32 225.67-230.74 376.792-242.616 26.836-2.212 54.050-2.264 81.424-0.186 2.516 0.178 5.032 0.364 7.55 0.574 30.964 2.174 62.134 6.852 93.238 14.366 425.172 102.798 378.942 616.198 378.942 616.198z" />
<glyph unicode="&#xeadb;" glyph-name="IE" d="M734.202 587.17h236.050c1.82 16.37 2.548 33.098 2.548 50.196 0 80.224-21.534 155.468-59.124 220.266 38.88 103.308 37.492 190.988-14.556 243.39-49.496 49.28-182.29 41.28-332.412-25.198-11.104 0.84-22.318 1.272-33.638 1.272-206.048 0-378.926-141.794-426.708-332.85 64.638 82.754 132.638 142.754 223.478 186.448-8.26-7.74-56.454-55.652-64.56-63.764-239.548-239.478-315.090-552.306-233.806-633.604 61.786-61.774 173.758-51.342 302.376 11.648 59.806-30.458 127.5-47.63 199.218-47.63 193.134 0 356.804 124.316 416.090 297.448h-237.868c-32.734-60.382-96.748-101.48-170.218-101.48-73.468 0-137.484 41.098-170.216 101.48-14.55 27.274-22.914 58.554-22.914 91.656v0.722h386.26zM348.302 703.196c5.456 97.11 86.2 174.584 184.766 174.584s179.312-77.472 184.766-174.584h-369.532zM896.966 1052.192c33.526-33.88 32.688-96.214 4.012-174.022-49.136 74.908-120.518 133.936-204.792 167.64 90.106 38.638 163.406 43.756 200.78 6.382zM93.482 248.744c-42.782 42.796-29.884 132.618 25.23 240.832 34.308-96.27 101.156-177.090 187.336-229.154-95.43-43.318-173.536-50.674-212.566-11.678z" />
<glyph unicode="&#xeadc;" glyph-name="edge" d="M15.4 761.4c30 236.8 191.6 451.6 481.2 454.6 174.8-3.4 318.6-82.6 404.2-233.6 43-78.8 56.4-161.6 59.2-253v-107.4h-642.6c3-265 390-256 556.6-139.2v-215.8c-97.6-58.6-319-111-490.4-43.6-146 54.8-250 207.6-249.4 354.6-4.8 190.6 94.8 316.8 249.4 388.6-32.8-40.6-57.8-85.4-70.8-163h362.8c0 0 21.2 216.8-205.4 216.8-213.6-7.4-367.6-131.6-454.8-259v0z" />
<glyph unicode="&#xeb3b;" glyph-name="ac_unit" d="M938 724.667v-84h-178l138-138-60-62-198 200h-86v-86l200-198-62-60-138 138v-178h-84v178l-138-138-62 60 200 198v86h-86l-198-200-60 62 138 138h-178v84h178l-138 138 60 62 198-200h86v86l-200 198 62 60 138-138v178h84v-178l138 138 62-60-200-198v-86h86l198 200 60-62-138-138h178z" />
<glyph unicode="&#xeb3f;" glyph-name="business_center" d="M598 896.667v84h-172v-84h172zM854 896.667c46 0 84-40 84-86v-128c0-46-38-86-84-86h-256v86h-172v-86h-256c-48 0-84 38-84 86v128c0 46 38 86 84 86h170v84l86 86h170l86-86v-84h172zM426 512.667h172v42h298v-170c0-48-38-86-86-86h-596c-48 0-86 38-86 86v170h298v-42z" />
<glyph unicode="&#xf002;" glyph-name="search2" horiz-adv-x="1365" d="M1356-100.267l-344 344c-6.133 6.133-14.133 9.333-22.667 9.333h-27.467c91.467 98.933 147.467 230.933 147.467 376.267 0 306.4-248.267 554.667-554.667 554.667s-554.667-248.267-554.667-554.667 248.267-554.667 554.667-554.667c145.333 0 277.333 56 376.267 147.2v-27.2c0-8.533 3.467-16.533 9.333-22.667l344-344c12.533-12.533 32.8-12.533 45.333 0l26.4 26.4c12.533 12.533 12.533 32.8 0 45.333zM554.667 160c-259.467 0-469.333 209.867-469.333 469.333s209.867 469.333 469.333 469.333 469.333-209.867 469.333-469.333-209.867-469.333-469.333-469.333z" />
<glyph unicode="&#xf003;" glyph-name="search3" horiz-adv-x="1365" d="M1356-66.4l-323.733 323.733c-6.133 6.133-14.133 9.333-22.667 9.333h-35.2c84 97.333 134.933 224 134.933 362.667 0 306.4-248.267 554.667-554.667 554.667s-554.667-248.267-554.667-554.667 248.267-554.667 554.667-554.667c138.667 0 265.333 50.933 362.667 134.933v-35.2c0-8.533 3.467-16.533 9.333-22.667l323.733-323.733c12.533-12.533 32.8-12.533 45.333 0l60.267 60.267c12.533 12.533 12.533 32.8 0 45.333zM554.667 202.667c-235.733 0-426.667 190.933-426.667 426.667s190.933 426.667 426.667 426.667 426.667-190.933 426.667-426.667-190.933-426.667-426.667-426.667z" />
<glyph unicode="&#xf00c;" glyph-name="check2" horiz-adv-x="1195" d="M1102.68 938.797l-746.707-746.707-263.987 263.987c-12.496 12.496-32.757 12.496-45.256 0l-30.168-30.168c-12.496-12.496-12.496-32.757 0-45.256l316.784-316.784c12.496-12.496 32.757-12.496 45.256 0l799.501 799.501c12.496 12.496 12.496 32.757 0 45.256l-30.171 30.171c-12.496 12.496-32.757 12.496-45.253 0z" />
<glyph unicode="&#xf00d;" glyph-name="check3" horiz-adv-x="1365" d="M1162.261 961.424l-701.451-701.451-257.739 257.739c-12.496 12.496-32.757 12.496-45.256 0l-75.424-75.424c-12.496-12.496-12.496-32.757 0-45.256l355.789-355.789c12.496-12.496 32.757-12.496 45.256 0l799.501 799.501c12.496 12.496 12.496 32.757 0 45.256l-75.424 75.424c-12.496 12.496-32.757 12.496-45.253 0z" />
<glyph unicode="&#xf02a;" glyph-name="barcode" horiz-adv-x="1365" d="M0-10.667v1024h48v-1024h-48zM71.619-9.939v1023.272h24.381v-1023.272h-24.381zM144-9.939v1023.272h23.619v-1023.272h-23.619zM263.619-9.939v1023.272h23.619v-1023.272h-23.619zM359.619-9.939v1023.272h47.237v-1023.272h-47.237zM479.237-9.939v1023.272h23.619v-1023.272h-23.619zM527.237-9.939v1023.272h23.619v-1023.272h-23.619zM575.237-9.939v1023.272h23.619v-1023.272h-23.619zM670.477-9.939v1023.272h48v-1023.272h-48zM790.096-9.939v1023.272h48v-1023.272h-48zM886.093-9.939v1023.272h48.003v-1023.272h-48.003zM982.096-9.939v1023.272h48.003v-1023.272h-48.003zM1053.715-9.939v1023.272h48v-1023.272h-48zM1174.096-9.939v1023.272h71.619v-1023.272h-71.619zM1269.333-9.939v1023.272h24.381v-1023.272h-24.381zM1317.333-10.667v1024h48v-1024h-48z" />
<glyph unicode="&#xf02d;" glyph-name="book" horiz-adv-x="1195" d="M1194.667 224v896c0 35.467-28.533 64-64 64h-874.667c-141.333 0-256-114.667-256-256v-853.333c0-141.333 114.667-256 256-256h874.667c35.467 0 64 28.533 64 64v42.667c0 20-9.333 38.133-23.733 49.867-11.2 41.067-11.2 158.133 0 199.2 14.4 11.467 23.733 29.6 23.733 49.6zM341.333 826.667c0 8.8 7.2 16 16 16h565.333c8.8 0 16-7.2 16-16v-53.333c0-8.8-7.2-16-16-16h-565.333c-8.8 0-16 7.2-16 16v53.333zM341.333 656c0 8.8 7.2 16 16 16h565.333c8.8 0 16-7.2 16-16v-53.333c0-8.8-7.2-16-16-16h-565.333c-8.8 0-16 7.2-16 16v53.333zM1017.067-10.667h-761.067c-47.2 0-85.333 38.133-85.333 85.333 0 46.933 38.4 85.333 85.333 85.333h761.067c-5.067-45.6-5.067-125.067 0-170.667z" />
<glyph unicode="&#xf02e;" glyph-name="book2" horiz-adv-x="1195" d="M341.333 778.667v85.333c0 11.733 9.6 21.333 21.333 21.333h554.667c11.733 0 21.333-9.6 21.333-21.333v-85.333c0-11.733-9.6-21.333-21.333-21.333h-554.667c-11.733 0-21.333 9.6-21.333 21.333zM362.667 544h554.667c11.733 0 21.333 9.6 21.333 21.333v85.333c0 11.733-9.6 21.333-21.333 21.333h-554.667c-11.733 0-21.333-9.6-21.333-21.333v-85.333c0-11.733 9.6-21.333 21.333-21.333zM1160.267 118.133c-11.2-34.667-11.2-137.6 0-172.267 19.467-3.733 34.4-21.067 34.4-41.867v-42.667c0-23.467-19.2-42.667-42.667-42.667h-938.667c-117.867 0-213.333 95.467-213.333 213.333v938.667c0 117.867 95.467 213.333 213.333 213.333h938.667c23.467 0 42.667-19.2 42.667-42.667v-981.333c0-20.8-14.667-37.867-34.4-41.867zM1050.667 117.333h-837.333c-46.933 0-85.333-38.4-85.333-85.333 0-47.2 38.133-85.333 85.333-85.333h837.333c-7.2 46.133-7.2 124.533 0 170.667zM1066.667 1056h-853.333c-47.2 0-85.333-38.133-85.333-85.333v-743.2c26.133 11.467 54.933 17.867 85.333 17.867h853.333v810.667z" />
<glyph unicode="&#xf02f;" glyph-name="print" horiz-adv-x="1365" d="M1109.333 672v293.6c0 17.067-6.667 33.333-18.667 45.333l-154.667 154.4c-12 12-28.267 18.667-45.333 18.667h-570.667c-35.2 0-64-28.8-64-64v-448c-141.333 0-256-114.667-256-256v-362.667c0-35.2 28.8-64 64-64h192v-106.667c0-35.2 28.8-64 64-64h725.333c35.2 0 64 28.8 64 64v106.667h192c35.2 0 64 28.8 64 64v362.667c0 141.333-114.667 256-256 256zM341.333 1098.667h540.8l141.867-141.867v-455.467h-682.667v597.333zM1024-96h-682.667v256h682.667v-256zM1280 74.667h-170.667v106.667c0 35.2-28.8 64-64 64h-725.333c-35.2 0-64-28.8-64-64v-106.667h-170.667v341.333c0 94.133 76.533 170.667 170.667 170.667v-106.667c0-35.2 28.8-64 64-64h725.333c35.2 0 64 28.8 64 64v106.667c94.133 0 170.667-76.533 170.667-170.667v-341.333zM1205.333 373.333c0-29.333-24-53.333-53.333-53.333s-53.333 24-53.333 53.333 24 53.333 53.333 53.333 53.333-24 53.333-53.333z" />
<glyph unicode="&#xf036;" glyph-name="align-left" horiz-adv-x="1195" d="M768 1045.333v-64c0-8.837-7.163-16-16-16v0h-736c-8.837 0-16 7.163-16 16v0 64c0 8.837 7.163 16 16 16v0h736c8.837 0 16-7.163 16-16v0zM16 624h1162.667c8.837 0 16 7.163 16 16v0 64c0 8.837-7.163 16-16 16v0h-1162.667c-8.837 0-16-7.163-16-16v0-64c0-8.837 7.163-16 16-16v0zM16-58.667h1162.667c8.837 0 16 7.163 16 16v0 64c0 8.837-7.163 16-16 16v0h-1162.667c-8.837 0-16-7.163-16-16v0-64c0-8.837 7.163-16 16-16v0zM752 378.667h-736c-8.837 0-16-7.163-16-16v0-64c0-8.837 7.163-16 16-16v0h736c8.837 0 16 7.163 16 16v0 64c0 8.837-7.163 16-16 16v0z" />
<glyph unicode="&#xf037;" glyph-name="align-center" horiz-adv-x="1195" d="M938.667 1045.333v-64c0-8.837-7.163-16-16-16v0h-650.667c-8.837 0-16 7.163-16 16v0 64c0 8.837 7.163 16 16 16v0h650.667c8.837 0 16-7.163 16-16v0zM16 624h1162.667c8.837 0 16 7.163 16 16v0 64c0 8.837-7.163 16-16 16v0h-1162.667c-8.837 0-16-7.163-16-16v0-64c0-8.837 7.163-16 16-16v0zM16-58.667h1162.667c8.837 0 16 7.163 16 16v0 64c0 8.837-7.163 16-16 16v0h-1162.667c-8.837 0-16-7.163-16-16v0-64c0-8.837 7.163-16 16-16v0zM922.667 378.667h-650.667c-8.837 0-16-7.163-16-16v0-64c0-8.837 7.163-16 16-16v0h650.667c8.837 0 16 7.163 16 16v0 64c0 8.837-7.163 16-16 16v0z" />
<glyph unicode="&#xf038;" glyph-name="align-right" horiz-adv-x="1195" d="M426.667 981.333v64c0 8.837 7.163 16 16 16v0h736c8.837 0 16-7.163 16-16v0-64c0-8.837-7.163-16-16-16v0h-736c-8.837 0-16 7.163-16 16v0zM16 624h1162.667c8.837 0 16 7.163 16 16v0 64c0 8.837-7.163 16-16 16v0h-1162.667c-8.837 0-16-7.163-16-16v0-64c0-8.837 7.163-16 16-16v0zM16-58.667h1162.667c8.837 0 16 7.163 16 16v0 64c0 8.837-7.163 16-16 16v0h-1162.667c-8.837 0-16-7.163-16-16v0-64c0-8.837 7.163-16 16-16v0zM442.667 282.667h736c8.837 0 16 7.163 16 16v0 64c0 8.837-7.163 16-16 16v0h-736c-8.837 0-16-7.163-16-16v0-64c0-8.837 7.163-16 16-16v0z" />
<glyph unicode="&#xf039;" glyph-name="align-justify" horiz-adv-x="1195" d="M0 981.333v64c0 8.837 7.163 16 16 16v0h1162.667c8.837 0 16-7.163 16-16v0-64c0-8.837-7.163-16-16-16v0h-1162.667c-8.837 0-16 7.163-16 16v0zM16 624h1162.667c8.837 0 16 7.163 16 16v0 64c0 8.837-7.163 16-16 16v0h-1162.667c-8.837 0-16-7.163-16-16v0-64c0-8.837 7.163-16 16-16v0zM16-58.667h1162.667c8.837 0 16 7.163 16 16v0 64c0 8.837-7.163 16-16 16v0h-1162.667c-8.837 0-16-7.163-16-16v0-64c0-8.837 7.163-16 16-16v0zM16 282.667h1162.667c8.837 0 16 7.163 16 16v0 64c0 8.837-7.163 16-16 16v0h-1162.667c-8.837 0-16-7.163-16-16v0-64c0-8.837 7.163-16 16-16v0z" />
<glyph unicode="&#xf03a;" glyph-name="list2" horiz-adv-x="1365" d="M1349.333 880h-992c-8.837 0-16 7.163-16 16v0 64c0 8.837 7.163 16 16 16v0h992c8.837 0 16-7.163 16-16v0-64c0-8.837-7.163-16-16-16v0zM1365.333 469.333v64c0 8.837-7.163 16-16 16v0h-992c-8.837 0-16-7.163-16-16v0-64c0-8.837 7.163-16 16-16v0h992c8.837 0 16 7.163 16 16v0zM1365.333 42.667v64c0 8.837-7.163 16-16 16v0h-992c-8.837 0-16-7.163-16-16v0-64c0-8.837 7.163-16 16-16v0h992c8.837 0 16 7.163 16 16v0zM224 864v128c0 17.672-14.328 32-32 32h-128c-17.672 0-32-14.328-32-32v-128c0-17.672 14.328-32 32-32h128c17.672 0 32 14.328 32 32zM224 437.333v128c0 17.672-14.328 32-32 32h-128c-17.672 0-32-14.328-32-32v-128c0-17.672 14.328-32 32-32h128c17.672 0 32 14.328 32 32zM224 10.667v128c0 17.672-14.328 32-32 32h-128c-17.672 0-32-14.328-32-32v-128c0-17.672 14.328-32 32-32h128c17.672 0 32 14.328 32 32z" />
<glyph unicode="&#xf03b;" glyph-name="align-justify2" horiz-adv-x="1195" d="M0 970.667v85.333c0 17.672 14.328 32 32 32h1130.667c17.672 0 32-14.328 32-32v-85.333c0-17.672-14.328-32-32-32h-1130.667c-17.672 0-32 14.328-32 32zM32 597.333h1130.667c17.672 0 32 14.328 32 32v85.333c0 17.672-14.328 32-32 32h-1130.667c-17.672 0-32-14.328-32-32v-85.333c0-17.672 14.328-32 32-32zM32-85.333h1130.667c17.672 0 32 14.328 32 32v85.333c0 17.672-14.328 32-32 32h-1130.667c-17.672 0-32-14.328-32-32v-85.333c0-17.672 14.328-32 32-32zM32 256h1130.667c17.672 0 32 14.328 32 32v85.333c0 17.672-14.328 32-32 32h-1130.667c-17.672 0-32-14.328-32-32v-85.333c0-17.672 14.328-32 32-32z" />
<glyph unicode="&#xf053;" glyph-name="chevron-left" horiz-adv-x="683" d="M635.933-84.093l18.856 18.853c12.496 12.496 12.496 32.757 0 45.256l-521.315 521.317 521.315 521.317c12.496 12.496 12.496 32.757 0 45.256l-18.856 18.853c-12.496 12.496-32.757 12.496-45.253 0l-562.803-562.8c-12.496-12.496-12.496-32.757 0-45.256l562.803-562.8c12.496-12.496 32.757-12.496 45.253 0.003z" />
<glyph unicode="&#xf054;" glyph-name="chevron-right" horiz-adv-x="683" d="M46.733 1086.76l-18.856-18.853c-12.496-12.496-12.496-32.757 0-45.256l521.315-521.317-521.315-521.317c-12.496-12.496-12.496-32.757 0-45.256l18.856-18.853c12.496-12.496 32.757-12.496 45.253 0l562.803 562.8c12.496 12.496 12.496 32.757 0 45.256l-562.803 562.797c-12.496 12.499-32.757 12.499-45.253 0z" />
<glyph unicode="&#xf055;" glyph-name="chevron-left2" horiz-adv-x="683" d="M616.781-79.731l52.797 52.797c12.496 12.496 12.496 32.757 0 45.256l-481.864 483.011 481.864 483.013c12.496 12.496 12.496 32.757 0 45.256l-52.797 52.797c-12.496 12.496-32.757 12.496-45.256 0l-558.437-558.44c-12.496-12.496-12.496-32.757 0-45.256l558.437-558.437c12.499-12.496 32.76-12.496 45.256 0.003z" />
<glyph unicode="&#xf056;" glyph-name="chevron-right2" horiz-adv-x="683" d="M65.885 1082.397l-52.797-52.795c-12.496-12.496-12.496-32.757 0-45.256l481.864-483.013-481.864-483.013c-12.496-12.496-12.496-32.757 0-45.256l52.797-52.797c12.496-12.496 32.757-12.496 45.256 0l558.437 558.437c12.496 12.496 12.496 32.757 0 45.256l-558.437 558.437c-12.499 12.499-32.76 12.499-45.256 0z" />
<glyph unicode="&#xf058;" glyph-name="check-circle" horiz-adv-x="1365" d="M682.667 1162.667c-365.245 0-661.333-296.088-661.333-661.333s296.088-661.333 661.333-661.333 661.333 296.088 661.333 661.333-296.088 661.333-661.333 661.333zM682.667 1034.667c294.752 0 533.333-238.536 533.333-533.333 0-294.752-238.536-533.333-533.333-533.333-294.752 0-533.333 238.536-533.333 533.333 0 294.752 238.536 533.333 533.333 533.333M1056.544 687.288l-60.096 60.581c-12.445 12.547-32.707 12.629-45.253 0.181l-376.939-373.909-159.445 160.739c-12.445 12.547-32.707 12.629-45.253 0.184l-60.584-60.096c-12.547-12.445-12.629-32.707-0.181-45.256l242.083-244.043c12.445-12.547 32.707-12.629 45.253-0.181l460.237 456.544c12.544 12.448 12.624 32.709 0.179 45.256z" />
<glyph unicode="&#xf067;" glyph-name="plus" d="M1002.667 565.333h-426.667v426.667c0 11.787-9.547 21.333-21.333 21.333h-85.333c-11.787 0-21.333-9.547-21.333-21.333v-426.667h-426.667c-11.787 0-21.333-9.547-21.333-21.333v-85.333c0-11.787 9.547-21.333 21.333-21.333h426.667v-426.667c0-11.787 9.547-21.333 21.333-21.333h85.333c11.787 0 21.333 9.547 21.333 21.333v426.667h426.667c11.787 0 21.333 9.547 21.333 21.333v85.333c0 11.787-9.547 21.333-21.333 21.333z" />
<glyph unicode="&#xf068;" glyph-name="minus" d="M1002.667 565.333h-981.333c-11.787 0-21.333-9.547-21.333-21.333v-85.333c0-11.787 9.547-21.333 21.333-21.333h981.333c11.787 0 21.333 9.547 21.333 21.333v85.333c0 11.787-9.547 21.333-21.333 21.333z" />
<glyph unicode="&#xf069;" glyph-name="minus2" horiz-adv-x="1195" d="M1109.333 629.333h-1024c-47.12 0-85.333-38.213-85.333-85.333v-85.333c0-47.12 38.213-85.333 85.333-85.333h1024c47.12 0 85.333 38.213 85.333 85.333v85.333c0 47.12-38.213 85.333-85.333 85.333z" />
<glyph unicode="&#xf06e;" glyph-name="eye" horiz-adv-x="1536" d="M1518.277 566.317c-150.36 255.152-430.784 425.683-750.277 425.683-319.627 0-599.989-170.651-750.277-425.683-11.138-18.593-17.724-41.020-17.724-64.985s6.586-46.392 18.047-65.57l-0.324 0.584c150.36-255.149 430.784-425.68 750.277-425.68 319.627 0 599.989 170.651 750.277 425.683 11.138 18.593 17.724 41.019 17.724 64.984s-6.586 46.391-18.048 65.568l0.324-0.584zM768 138.667c-200.432 0-362.667 162.205-362.667 362.667 0 200.432 162.203 362.667 362.667 362.667 200.432 0 362.667-162.203 362.667-362.667 0-200.432-162.203-362.667-362.667-362.667zM1045.333 501.333c0-153.168-124.165-277.333-277.333-277.333s-277.333 124.165-277.333 277.333c0 47.221 11.816 91.677 32.629 130.595l-0.003-0.085c0-63.069 51.128-114.195 114.197-114.195s114.197 51.128 114.197 114.195c0 63.069-51.128 114.197-114.197 114.197l-0.085-0.003c38.917 20.813 83.373 32.629 130.595 32.629 153.168 0 277.333-124.165 277.333-277.333z" />
<glyph unicode="&#xf06f;" glyph-name="eye2" horiz-adv-x="1536" d="M1518.277 566.317c-150.36 255.155-430.789 425.683-750.277 425.683-319.627 0-599.989-170.651-750.277-425.68-11.138-18.593-17.724-41.020-17.724-64.985s6.586-46.392 18.047-65.57l-0.324 0.584c150.363-255.157 430.789-425.683 750.277-425.683 319.627 0 599.989 170.651 750.277 425.683 11.136 18.593 17.722 41.019 17.722 64.984s-6.585 46.391-18.045 65.568l0.324-0.584zM1109.333 576c0-182.621-152.821-330.667-341.333-330.667s-341.333 148.045-341.333 330.667 152.821 330.667 341.333 330.667 341.333-148.045 341.333-330.667zM1444.757 479.672c-138.525-235.077-394.451-383.672-676.757-383.672-283.443 0-538.829 149.613-676.757 383.669-3.711 6.198-5.906 13.674-5.906 21.663s2.195 15.464 6.014 21.858l-0.108-0.195c77.525 131.555 195.576 241.16 340.427 309.032-56.083-69.869-90.336-158.875-90.336-256.027 0-228.848 189.923-416 426.667-416 236.72 0 426.667 187.141 426.667 416 0 97.096-34.221 186.117-90.333 256.027 143.36-67.171 262.064-176.056 340.427-309.032 3.71-6.198 5.904-13.672 5.904-21.659 0-7.989-2.195-15.465-6.014-21.859l0.108 0.195zM597.333 586.667c0 29.059 7.272 56.416 20.080 80.365v-0.053c0-38.811 31.464-70.275 70.275-70.275s70.275 31.464 70.275 70.275-31.464 70.275-70.275 70.275h-0.053c23.949 12.808 51.307 20.080 80.365 20.080 94.256 0 170.667-76.411 170.667-170.667s-76.411-170.667-170.667-170.667-170.667 76.411-170.667 170.667z" />
<glyph unicode="&#xf070;" glyph-name="eye3" horiz-adv-x="1536" d="M1518.277 566.317c-150.357 255.152-430.784 425.683-750.277 425.683-319.627 0-599.989-170.651-750.277-425.683-11.138-18.593-17.724-41.020-17.724-64.985s6.586-46.392 18.047-65.57l-0.324 0.584c150.36-255.149 430.784-425.68 750.277-425.68 319.627 0 599.989 170.651 750.277 425.683 11.138 18.593 17.724 41.019 17.724 64.984s-6.586 46.391-18.048 65.568l0.324-0.584zM768 138.667c-273.483 0-512.243 145.869-640 362.667 117.752 199.821 329.805 339.387 576.432 360.019 26.123-26.893 42.235-63.565 42.235-104.019 0-82.475-66.859-149.333-149.333-149.333s-149.333 66.859-149.333 149.333l0.003 0.112c-27.219-50.893-42.669-109.029-42.669-170.779 0-200.296 162.371-362.667 362.667-362.667s362.667 162.371 362.667 362.667c0 82.749-27.733 159.011-74.387 220.040 148.264-61.741 271.744-169.656 351.72-305.373-127.755-216.797-366.517-362.667-640-362.667z" />
<glyph unicode="&#xf071;" glyph-name="eye-slash" horiz-adv-x="1536" d="M764.515 138.709l86.877-124.112c-24.989-2.497-54.019-3.924-83.381-3.931h-0.011c-319.493 0-599.917 170.531-750.277 425.683-11.138 18.593-17.724 41.020-17.724 64.985s6.586 46.392 18.047 65.57l-0.324-0.584c64.061 108.709 151.768 202.067 256.064 273.432l152.205-217.437c-13.363-37.835-20.659-78.547-20.659-120.981 0-199.296 160.36-360.752 359.181-362.624zM1518.277 436.349c-84.445-143.299-209.992-259.893-360.467-334.6l0.029-0.040 110.587-157.867c20.267-28.96 13.227-68.853-15.733-89.12l-34.96-24.48c-28.96-20.267-68.853-13.227-89.12 15.733l-861.040 1212.851c-20.267 28.96-13.227 68.853 15.733 89.12l34.96 24.48c28.96 20.267 68.853 13.227 89.12-15.733l136.101-193.645c71.659 18.883 146.925 28.952 224.512 28.952 319.493 0 599.917-170.531 750.277-425.683 11.136-18.593 17.722-41.019 17.722-64.984s-6.585-46.391-18.045-65.568l0.324 0.584zM1130.667 501.333c0 200.464-162.235 362.667-362.667 362.667-47.837 0-93.483-9.261-135.277-26.059l51.464-72.155c68.984 21.789 146.784 16.435 214.4-19.76h-0.080c-63.067 0-114.187-51.12-114.187-114.187 0-63.003 51.059-114.187 114.187-114.187 63.067 0 114.187 51.12 114.187 114.187v0.080c49.232-91.973 43.499-207.771-22-295.867v-0.027l51.504-72.163c55.125 63.603 88.469 146.605 88.469 237.469zM698.704 232.728l-206.747 295.352c-13.371-139.699 78.171-262.277 206.747-295.352z" />
<glyph unicode="&#xf072;" glyph-name="eye-slash2" horiz-adv-x="1536" d="M857.323 101.011l57.915-78.059c-44.172-7.817-95.027-12.285-146.925-12.285-0.11 0-0.22 0-0.331 0h0.018c-319.627 0-599.992 170.651-750.277 425.683-11.138 18.593-17.724 41.020-17.724 64.985s6.586 46.392 18.047 65.57l-0.324-0.584c68.891 116.907 165.101 216.027 279.848 289.139l51-68.739c-106.213-66.512-194.677-157.405-257.331-263.723-3.71-6.198-5.904-13.674-5.904-21.661s2.194-15.463 6.012-21.856l-0.108 0.195c138.528-235.080 394.453-383.675 676.76-383.675 30.128 0 59.936 1.707 89.323 5.011zM378.592 746.253c-23.827-51.773-37.259-109.427-37.259-170.253 0-228.859 189.947-416 426.667-416 14.843 0 29.501 0.739 43.944 2.173l-62.043 83.624c-180.099 9.115-323.235 153.464-323.235 330.203 0 0.049 0 0.108 0 0.166 0 31.534 4.543 62.006 13.010 90.799l-0.573-2.272-60.512 81.56zM1518.277 436.347c-89.891-152.539-226.296-274.771-389.715-348.461l151.816-204.619c10.667-14.376 7.659-34.677-6.717-45.344l-17.352-12.875c-14.376-10.667-34.677-7.659-45.341 6.717l-955.344 1287.635c-10.667 14.376-7.659 34.677 6.717 45.344l17.352 12.875c14.376 10.667 34.677 7.659 45.341-6.717l165.837-223.52c87.104 28.931 180.317 44.619 277.128 44.619 319.627 0 599.989-170.651 750.277-425.68 11.137-18.594 17.722-41.021 17.722-64.987s-6.586-46.393-18.046-65.571l0.324 0.584zM1109.333 576c0 182.621-152.821 330.667-341.333 330.667-74.824 0-144.005-23.344-200.253-62.901l92.557-124.752c54.237 44.224 128.651 50.013 188.061 18.24h-0.053c-38.811 0-70.275-31.464-70.275-70.275s31.464-70.275 70.275-70.275c38.811 0 70.275 31.464 70.275 70.275v0.053c40.595-75.907 18.371-172.144-55.144-221.813l102.704-138.429c86.661 59.971 143.187 158.176 143.187 269.211zM1444.76 522.995c-77.525 131.555-195.576 241.16-340.427 309.032 147.747-184.077 111.203-454.435-87.291-593.835l59.301-79.928c153.504 64.813 283.323 177.013 368.413 321.405 3.712 6.199 5.906 13.676 5.906 21.665 0 7.987-2.194 15.462-6.012 21.856l0.108-0.195z" />
<glyph unicode="&#xf073;" glyph-name="calendar-alt" horiz-adv-x="1195" d="M1066.667 1013.333h-128v138.667c0 17.6-14.4 32-32 32h-21.333c-17.6 0-32-14.4-32-32v-138.667h-512v138.667c0 17.6-14.4 32-32 32h-21.333c-17.6 0-32-14.4-32-32v-138.667h-128c-70.667 0-128-57.333-128-128v-938.667c0-70.667 57.333-128 128-128h938.667c70.667 0 128 57.333 128 128v938.667c0 70.667-57.333 128-128 128zM128 928h938.667c23.467 0 42.667-19.2 42.667-42.667v-128h-1024v128c0 23.467 19.2 42.667 42.667 42.667zM1066.667-96h-938.667c-23.467 0-42.667 19.2-42.667 42.667v725.333h1024v-725.333c0-23.467-19.2-42.667-42.667-42.667zM394.667 330.667h-106.667c-17.6 0-32 14.4-32 32v106.667c0 17.6 14.4 32 32 32h106.667c17.6 0 32-14.4 32-32v-106.667c0-17.6-14.4-32-32-32zM650.667 330.667h-106.667c-17.6 0-32 14.4-32 32v106.667c0 17.6 14.4 32 32 32h106.667c17.6 0 32-14.4 32-32v-106.667c0-17.6-14.4-32-32-32zM906.667 330.667h-106.667c-17.6 0-32 14.4-32 32v106.667c0 17.6 14.4 32 32 32h106.667c17.6 0 32-14.4 32-32v-106.667c0-17.6-14.4-32-32-32zM650.667 74.667h-106.667c-17.6 0-32 14.4-32 32v106.667c0 17.6 14.4 32 32 32h106.667c17.6 0 32-14.4 32-32v-106.667c0-17.6-14.4-32-32-32zM394.667 74.667h-106.667c-17.6 0-32 14.4-32 32v106.667c0 17.6 14.4 32 32 32h106.667c17.6 0 32-14.4 32-32v-106.667c0-17.6-14.4-32-32-32zM906.667 74.667h-106.667c-17.6 0-32 14.4-32 32v106.667c0 17.6 14.4 32 32 32h106.667c17.6 0 32-14.4 32-32v-106.667c0-17.6-14.4-32-32-32z" />
<glyph unicode="&#xf074;" glyph-name="calendar-alt2" horiz-adv-x="1195" d="M1162.667 757.333h-1130.667c-17.6 0-32 14.4-32 32v96c0 70.667 57.333 128 128 128h128v138.667c0 17.6 14.4 32 32 32h106.667c17.6 0 32-14.4 32-32v-138.667h341.333v138.667c0 17.6 14.4 32 32 32h106.667c17.6 0 32-14.4 32-32v-138.667h128c70.667 0 128-57.333 128-128v-96c0-17.6-14.4-32-32-32zM32 672h1130.667c17.6 0 32-14.4 32-32v-693.333c0-70.667-57.333-128-128-128h-938.667c-70.667 0-128 57.333-128 128v693.333c0 17.6 14.4 32 32 32zM341.333 128c0 17.6-14.4 32-32 32h-106.667c-17.6 0-32-14.4-32-32v-106.667c0-17.6 14.4-32 32-32h106.667c17.6 0 32 14.4 32 32v106.667zM341.333 469.333c0 17.6-14.4 32-32 32h-106.667c-17.6 0-32-14.4-32-32v-106.667c0-17.6 14.4-32 32-32h106.667c17.6 0 32 14.4 32 32v106.667zM682.667 128c0 17.6-14.4 32-32 32h-106.667c-17.6 0-32-14.4-32-32v-106.667c0-17.6 14.4-32 32-32h106.667c17.6 0 32 14.4 32 32v106.667zM682.667 469.333c0 17.6-14.4 32-32 32h-106.667c-17.6 0-32-14.4-32-32v-106.667c0-17.6 14.4-32 32-32h106.667c17.6 0 32 14.4 32 32v106.667zM1024 128c0 17.6-14.4 32-32 32h-106.667c-17.6 0-32-14.4-32-32v-106.667c0-17.6 14.4-32 32-32h106.667c17.6 0 32 14.4 32 32v106.667zM1024 469.333c0 17.6-14.4 32-32 32h-106.667c-17.6 0-32-14.4-32-32v-106.667c0-17.6 14.4-32 32-32h106.667c17.6 0 32 14.4 32 32v106.667z" />
<glyph unicode="&#xf075;" glyph-name="eye-slash3" horiz-adv-x="1536" d="M727.205 226.296c-214.621 24.029-363.232 231.696-311.813 445.445l311.813-445.445zM768 138.667c-273.483 0-512.245 145.869-640 362.667 58.013 98.445 138.933 182.245 235.584 244.421l-73.443 104.915c-111.472-72.627-205.019-169.979-272.419-284.352-11.138-18.593-17.724-41.020-17.724-64.985s6.586-46.392 18.047-65.57l-0.324 0.584c150.288-255.029 430.651-425.68 750.277-425.68 0.017 0 0.036 0 0.056 0 37.242 0 73.949 2.293 109.986 6.747l-4.314-0.435-85.389 121.984c-6.016-0.18-13.143-0.288-20.293-0.296h-0.046zM1518.277 436.349c-88.619-150.384-222.456-271.312-382.811-345.312l128.309-183.307c10.136-14.477 6.613-34.432-7.864-44.565l-55.299-38.712c-14.477-10.136-34.432-6.613-44.565 7.864l-883.824 1262.619c-10.136 14.477-6.613 34.432 7.864 44.565l55.299 38.712c14.477 10.136 34.432 6.613 44.565-7.864l148.069-211.533c76.277 21.603 156.8 33.184 239.979 33.184 319.627 0 599.989-170.651 750.277-425.683 11.136-18.593 17.722-41.019 17.722-64.984s-6.585-46.391-18.045-65.568l0.324 0.584zM1408 501.333c-117.752 199.821-329.805 339.387-576.432 360.019-26.123-26.893-42.235-63.565-42.235-104.019 0-82.475 66.859-149.333 149.333-149.333s149.333 66.859 149.333 149.333l-0.003 0.112c81.685-152.739 44.637-347.36-98.475-457.917l71.187-101.693c146.293 62.029 268.112 169.136 347.291 303.499z" />
<glyph unicode="&#xf077;" glyph-name="chevron-up" horiz-adv-x="1195" d="M11.907 206.733l18.853-18.856c12.496-12.496 32.757-12.496 45.256 0l521.317 521.315 521.317-521.315c12.496-12.496 32.757-12.496 45.256 0l18.853 18.856c12.496 12.496 12.496 32.757 0 45.253l-562.8 562.803c-12.496 12.496-32.757 12.496-45.256 0l-562.797-562.803c-12.499-12.496-12.499-32.757 0-45.253z" />
<glyph unicode="&#xf078;" glyph-name="chevron-down" horiz-adv-x="1195" d="M1182.667 750.4l-18.933 18.933c-12.533 12.533-32.8 12.533-45.333 0l-521.067-521.333-521.333 521.333c-12.533 12.533-32.8 12.533-45.333 0l-18.933-18.933c-12.533-12.533-12.533-32.8 0-45.333l562.667-562.933c12.533-12.533 32.8-12.533 45.333 0l562.667 562.933c12.8 12.533 12.8 32.8 0.267 45.333z" />
<glyph unicode="&#xf080;" glyph-name="chart-bar" horiz-adv-x="1365" d="M1333.333 74.667c17.6 0 32-14.4 32-32v-21.333c0-17.6-14.4-32-32-32h-1301.333c-17.6 0-32 14.4-32 32v960c0 17.6 14.4 32 32 32h21.333c17.6 0 32-14.4 32-32v-906.667h1248zM426.667 261.333v224c0 8.8-7.2 16-16 16h-53.333c-8.8 0-16-7.2-16-16v-224c0-8.8 7.2-16 16-16h53.333c8.8 0 16 7.2 16 16zM1194.667 261.333v650.667c0 8.8-7.2 16-16 16h-53.333c-8.8 0-16-7.2-16-16v-650.667c0-8.8 7.2-16 16-16h53.333c8.8 0 16 7.2 16 16zM938.667 261.333v394.667c0 8.8-7.2 16-16 16h-53.333c-8.8 0-16-7.2-16-16v-394.667c0-8.8 7.2-16 16-16h53.333c8.8 0 16 7.2 16 16zM682.667 261.333v565.333c0 8.8-7.2 16-16 16h-53.333c-8.8 0-16-7.2-16-16v-565.333c0-8.8 7.2-16 16-16h53.333c8.8 0 16 7.2 16 16z" />
<glyph unicode="&#xf0c0;" glyph-name="users" horiz-adv-x="1707" d="M256 586.667c94.133 0 170.667 76.533 170.667 170.667s-76.533 170.667-170.667 170.667-170.667-76.533-170.667-170.667 76.533-170.667 170.667-170.667zM1450.667 586.667c94.133 0 170.667 76.533 170.667 170.667s-76.533 170.667-170.667 170.667-170.667-76.533-170.667-170.667 76.533-170.667 170.667-170.667zM1536 501.333h-170.667c-46.933 0-89.333-18.933-120.267-49.6 107.467-58.933 183.733-165.333 200.267-291.733h176c47.2 0 85.333 38.133 85.333 85.333v85.333c0 94.133-76.533 170.667-170.667 170.667zM853.333 501.333c165.067 0 298.667 133.6 298.667 298.667s-133.6 298.667-298.667 298.667-298.667-133.6-298.667-298.667 133.6-298.667 298.667-298.667zM1058.133 416h-22.133c-55.467-26.667-117.067-42.667-182.667-42.667s-126.933 16-182.667 42.667h-22.133c-169.6 0-307.2-137.6-307.2-307.2v-76.8c0-70.667 57.333-128 128-128h768c70.667 0 128 57.333 128 128v76.8c0 169.6-137.6 307.2-307.2 307.2zM461.6 451.733c-30.933 30.667-73.333 49.6-120.267 49.6h-170.667c-94.133 0-170.667-76.533-170.667-170.667v-85.333c0-47.2 38.133-85.333 85.333-85.333h175.733c16.8 126.4 93.067 232.8 200.533 291.733z" />
<glyph unicode="&#xf0c1;" glyph-name="users2" horiz-adv-x="1707" d="M1450.667 586.667c117.867 0 213.333 95.467 213.333 213.333s-95.467 213.333-213.333 213.333-213.333-95.467-213.333-213.333 95.467-213.333 213.333-213.333zM1450.667 928c70.667 0 128-57.333 128-128s-57.333-128-128-128-128 57.333-128 128 57.333 128 128 128zM853.333 501.333c165.067 0 298.667 133.6 298.667 298.667s-133.6 298.667-298.667 298.667-298.667-133.6-298.667-298.667 133.6-298.667 298.667-298.667zM853.333 1013.333c117.6 0 213.333-95.733 213.333-213.333s-95.733-213.333-213.333-213.333-213.333 95.733-213.333 213.333 95.733 213.333 213.333 213.333zM1504 501.333h-106.667c-40.533 0-78.133-12.8-109.6-34.4 25.067-17.067 47.733-37.067 67.733-59.733 13.067 5.6 27.2 8.8 41.867 8.8h106.667c64.533 0 117.333-57.333 117.333-128 0-23.467 19.2-42.667 42.667-42.667s42.667 19.2 42.667 42.667c0 117.6-90.933 213.333-202.667 213.333zM256 586.667c117.867 0 213.333 95.467 213.333 213.333s-95.467 213.333-213.333 213.333-213.333-95.467-213.333-213.333 95.467-213.333 213.333-213.333zM256 928c70.667 0 128-57.333 128-128s-57.333-128-128-128-128 57.333-128 128 57.333 128 128 128zM1066.933 448c-89.067 0-111.2-32-213.6-32s-124.533 32-213.6 32c-96.8 0-190.933-43.2-246.133-125.067-33.067-49.067-52.267-108-52.267-171.467v-119.467c0-70.667 57.333-128 128-128h768c70.667 0 128 57.333 128 128v119.467c0 63.467-19.2 122.4-52.267 171.467-55.2 81.867-149.333 125.067-246.133 125.067zM1280 32c0-23.467-19.2-42.667-42.667-42.667h-768c-23.467 0-42.667 19.2-42.667 42.667v119.467c0 44.267 13.067 87.2 37.6 123.733 36.8 54.667 102.4 87.467 175.2 87.467 73.067 0 99.2-32 213.867-32s140.8 32 213.6 32c72.8 0 138.4-32.8 175.2-87.467 24.533-36.533 37.6-79.467 37.6-123.733v-119.467zM418.933 466.933c-31.733 21.6-69.333 34.4-109.6 34.4h-106.667c-111.733 0-202.667-95.733-202.667-213.333 0-23.467 19.2-42.667 42.667-42.667s42.667 19.2 42.667 42.667c0 70.667 52.8 128 117.333 128h106.667c14.667 0 28.8-3.2 41.867-8.8 20 22.667 42.933 42.667 67.733 59.733z" />
<glyph unicode="&#xf0c7;" glyph-name="save" horiz-adv-x="1195" d="M1157.176 837.491l-223.685 223.685c-23.163 23.163-55.163 37.49-90.509 37.491h-714.981c-70.693 0-128-57.307-128-128v-938.667c0-70.693 57.307-128 128-128h938.667c70.693 0 128 57.307 128 128v714.981c0 35.346-14.327 67.346-37.491 90.509v0zM597.333 74.667c-94.256 0-170.667 76.411-170.667 170.667s76.411 170.667 170.667 170.667 170.667-76.411 170.667-170.667c0-94.256-76.411-170.667-170.667-170.667zM853.333 886.72v-268.053c0-17.672-14.328-32-32-32h-618.667c-17.672 0-32 14.328-32 32v277.333c0 17.672 14.328 32 32 32h609.387c8.488 0 16.627-3.371 22.627-9.373l9.28-9.28c5.791-5.789 9.373-13.788 9.373-22.624 0-0.001 0-0.002 0-0.003v0z" />
<glyph unicode="&#xf0c8;" glyph-name="save2" horiz-adv-x="1195" d="M1157.176 837.491l-223.685 223.685c-23.163 23.163-55.163 37.49-90.509 37.491h-714.981c-70.693 0-128-57.307-128-128v-938.667c0-70.693 57.307-128 128-128h938.667c70.693 0 128 57.307 128 128v714.981c0 35.346-14.327 67.346-37.491 90.509v0zM768 1013.333v-256h-512v256h512zM1109.333 32c0-23.525-19.141-42.667-42.667-42.667h-938.667c-23.525 0-42.667 19.141-42.667 42.667v938.667c0 23.525 19.141 42.667 42.667 42.667h42.667v-277.333c0-35.347 28.653-64 64-64h554.667c35.347 0 64 28.653 64 64v276.024c7.802-1.967 14.512-5.876 19.818-11.186l223.686-223.686c7.719-7.678 12.496-18.308 12.496-30.053 0-0.041 0-0.083 0-0.124v0.006-714.981zM597.333 565.333c-129.395 0-234.667-105.272-234.667-234.667s105.272-234.667 234.667-234.667 234.667 105.272 234.667 234.667-105.272 234.667-234.667 234.667zM597.333 181.333c-82.344 0-149.333 66.989-149.333 149.333s66.989 149.333 149.333 149.333 149.333-66.989 149.333-149.333-66.989-149.333-149.333-149.333z" />
<glyph unicode="&#xf0c9;" glyph-name="bars" horiz-adv-x="1195" d="M42.667 832h1109.333c23.565 0 42.667 19.101 42.667 42.667v106.667c0 23.565-19.101 42.667-42.667 42.667h-1109.333c-23.565 0-42.667-19.101-42.667-42.667v-106.667c0-23.565 19.101-42.667 42.667-42.667zM42.667 405.333h1109.333c23.565 0 42.667 19.101 42.667 42.667v106.667c0 23.565-19.101 42.667-42.667 42.667h-1109.333c-23.565 0-42.667-19.101-42.667-42.667v-106.667c0-23.565 19.101-42.667 42.667-42.667zM42.667-21.333h1109.333c23.565 0 42.667 19.101 42.667 42.667v106.667c0 23.565-19.101 42.667-42.667 42.667h-1109.333c-23.565 0-42.667-19.101-42.667-42.667v-106.667c0-23.565 19.101-42.667 42.667-42.667z" />
<glyph unicode="&#xf0ca;" glyph-name="bars2" horiz-adv-x="1195" d="M1178.667 880h-1162.667c-8.837 0-16 7.163-16 16v0 64c0 8.837 7.163 16 16 16v0h1162.667c8.837 0 16-7.163 16-16v0-64c0-8.837-7.163-16-16-16v0zM1178.667 453.333h-1162.667c-8.837 0-16 7.163-16 16v0 64c0 8.837 7.163 16 16 16v0h1162.667c8.837 0 16-7.163 16-16v0-64c0-8.837-7.163-16-16-16v0zM1178.667 26.667h-1162.667c-8.837 0-16 7.163-16 16v0 64c0 8.837 7.163 16 16 16v0h1162.667c8.837 0 16-7.163 16-16v0-64c0-8.837-7.163-16-16-16v0z" />
<glyph unicode="&#xf0cb;" glyph-name="list-ol" horiz-adv-x="1365" d="M14.653 802.685c0 17.184 9.069 26.259 26.259 26.259h46.307v142.261c0 12.891 0.477 26.259 0.477 26.259h-0.957s-4.773-10.504-10.501-15.277l-4.296-3.819c-12.413-11.461-25.304-10.979-36.763 1.432l-12.411 13.368c-11.933 12.411-11.459 25.296 0.955 37.232l59.2 55.379c10.021 9.069 19.093 12.888 32.459 12.888h27.213c17.184 0 26.256-9.067 26.256-26.256v-243.469h46.784c17.184 0 26.259-9.072 26.259-26.259v-19.099c0-17.181-9.072-26.256-26.259-26.256h-174.725c-17.187 0-26.259 9.072-26.259 26.256v19.101zM9.917 366.819c0 123.952 145.080 146.019 145.080 194.376 0 23.475-18.784 33.336-36.155 33.336-15.024 0-27.699-7.981-35.683-16.435-11.739-11.267-23.947-15.963-36.621-5.632l-18.309 14.555c-13.147 10.331-16.435 22.067-6.573 34.744 16.435 21.597 48.829 50.237 104.701 50.237 54.931 0 114.56-31.456 114.56-102.824 0-104.701-135.688-124.891-139.912-168.083h119.253c16.904 0 25.824-8.923 25.824-25.824v-18.784c0-16.899-8.92-25.821-25.824-25.821h-182.637c-15.963 0-27.701 8.923-27.701 25.821v10.333zM17.584-31.677l12.677 20.659c8.92 14.552 20.656 15.493 35.211 6.571 12.677-7.040 29.112-14.083 47.891-14.083 30.52 0 47.891 15.024 47.891 33.336 0 26.291-26.293 37.091-62.445 37.091h-1.877c-15.024 0-22.536 4.696-29.109 17.843l-2.349 4.696c-5.632 10.797-3.288 22.536 6.104 33.333l30.52 37.093c15.963 19.251 29.112 31.459 29.112 31.459v0.939s-10.797-2.347-31.928-2.347h-54.467c-16.901 0-25.821 8.917-25.821 25.821v18.781c0 16.904 8.92 25.821 25.821 25.821h160.104c16.901 0 25.824-8.917 25.824-25.352v-7.512c0-13.147-3.288-22.069-11.739-31.928l-56.341-64.795c49.768-10.797 81.224-50.235 81.224-97.187 0.003-57.283-40.376-114.563-124.419-114.563-45.541 0-77.469 15.963-96.251 28.637-13.147 9.392-14.083 22.069-5.632 35.685zM1365.333 896v64c0 8.837-7.163 16-16 16v0h-992c-8.837 0-16-7.163-16-16v0-64c0-8.837 7.163-16 16-16v0h992c8.837 0 16 7.163 16 16v0zM1365.333 469.333v64c0 8.837-7.163 16-16 16v0h-992c-8.837 0-16-7.163-16-16v0-64c0-8.837 7.163-16 16-16v0h992c8.837 0 16 7.163 16 16v0zM1365.333 42.667v64c0 8.837-7.163 16-16 16v0h-992c-8.837 0-16-7.163-16-16v0-64c0-8.837 7.163-16 16-16v0h992c8.837 0 16 7.163 16 16v0z" />
<glyph unicode="&#xf0cc;" glyph-name="list-ul" horiz-adv-x="1365" d="M1349.333 880h-992c-8.837 0-16 7.163-16 16v0 64c0 8.837 7.163 16 16 16v0h992c8.837 0 16-7.163 16-16v0-64c0-8.837-7.163-16-16-16v0zM1365.333 469.333v64c0 8.837-7.163 16-16 16v0h-992c-8.837 0-16-7.163-16-16v0-64c0-8.837 7.163-16 16-16v0h992c8.837 0 16 7.163 16 16v0zM1365.333 42.667v64c0 8.837-7.163 16-16 16v0h-992c-8.837 0-16-7.163-16-16v0-64c0-8.837 7.163-16 16-16v0h992c8.837 0 16 7.163 16 16v0zM128 1024c-53.019 0-96-42.981-96-96s42.981-96 96-96 96 42.981 96 96-42.981 96-96 96zM128 597.333c-53.019 0-96-42.981-96-96s42.981-96 96-96 96 42.981 96 96-42.981 96-96 96zM128 170.667c-53.019 0-96-42.981-96-96s42.981-96 96-96 96 42.981 96 96-42.981 96-96 96z" />
<glyph unicode="&#xf0cd;" glyph-name="save3" horiz-adv-x="1195" d="M1157.176 837.491l-223.685 223.685c-23.163 23.163-55.163 37.49-90.509 37.491h-714.981c-70.693 0-128-57.307-128-128v-938.667c0-70.693 57.307-128 128-128h938.667c70.693 0 128 57.307 128 128v714.981c0 35.346-14.327 67.346-37.491 90.509v0zM725.333 970.667v-213.333h-341.333v213.333h341.333zM1050.667 32h-906.667c-8.837 0-16 7.163-16 16v0 906.667c0 8.837 7.163 16 16 16v0h112v-277.333c0-35.347 28.653-64 64-64h469.333c35.347 0 64 28.653 64 64v266.981l208.648-208.648c2.895-2.895 4.685-6.895 4.685-11.313 0-0.001 0-0.001 0-0.002v0-692.352c0-8.837-7.163-16-16-16v0zM597.333 565.333c-129.395 0-234.667-105.272-234.667-234.667s105.272-234.667 234.667-234.667 234.667 105.272 234.667 234.667-105.272 234.667-234.667 234.667zM597.333 224c-58.816 0-106.667 47.851-106.667 106.667s47.851 106.667 106.667 106.667 106.667-47.851 106.667-106.667-47.851-106.667-106.667-106.667z" />
<glyph unicode="&#xf0ce;" glyph-name="table" horiz-adv-x="1365" d="M1237.333 1098.667h-1109.333c-70.693 0-128-57.307-128-128v-938.667c0-70.693 57.307-128 128-128h1109.333c70.693 0 128 57.307 128 128v938.667c0 70.693-57.307 128-128 128zM426.667-10.667h-298.667c-23.565 0-42.667 19.101-42.667 42.667v213.333h341.333v-256zM426.667 330.667h-341.333v256h341.333v-256zM426.667 672h-341.333v256h341.333v-256zM853.333-10.667h-341.333v256h341.333v-256zM853.333 330.667h-341.333v256h341.333v-256zM853.333 672h-341.333v256h341.333v-256zM1280 245.333v-213.333c0-23.565-19.101-42.667-42.667-42.667h-298.667v256h341.333zM1280 330.667h-341.333v256h341.333v-256zM1280 672h-341.333v256h341.333v-256z" />
<glyph unicode="&#xf0e0;" glyph-name="envelope" horiz-adv-x="1365" d="M1237.333 1013.333h-1109.333c-70.693 0-128-57.307-128-128v-768c0-70.693 57.307-128 128-128h1109.333c70.693 0 128 57.307 128 128v768c0 70.693-57.307 128-128 128zM1237.333 885.333v-108.813c-59.792-48.691-155.115-124.403-358.899-283.973-44.909-35.325-133.869-120.192-195.768-119.203-61.888-1-150.877 83.891-195.768 119.203-203.752 159.547-299.099 235.275-358.899 283.973v108.813h1109.333zM128 117.333v494.939c61.104-48.669 147.757-116.965 279.835-220.389 58.285-45.88 160.357-147.163 274.832-146.547 113.912-0.616 214.691 99.197 274.808 146.525 132.075 103.421 218.752 171.736 279.859 220.408v-494.936h-1109.333z" />
<glyph unicode="&#xf0ec;" glyph-name="exchange" horiz-adv-x="1365" d="M1355.96 692.040l-246.627-245.333c-12.499-12.496-32.757-12.496-45.253 0l-18.856 18.853c-12.499 12.496-12.499 32.757 0 45.256l162.491 161.184h-1175.715c-17.672 0-32 14.328-32 32v21.333c0 17.672 14.328 32 32 32h1175.747l-162.523 161.184c-12.499 12.496-12.499 32.757 0 45.256l18.853 18.853c12.499 12.496 32.757 12.496 45.256 0l246.627-245.333c12.499-12.496 12.496-32.757 0-45.253zM9.373 265.373l246.627-245.333c12.499-12.496 32.757-12.496 45.256 0l18.853 18.853c12.499 12.496 12.499 32.757 0 45.256l-162.523 161.184h1175.747c17.672 0 32 14.328 32 32v21.333c0 17.672-14.328 32-32 32h-1175.715l162.491 161.184c12.499 12.496 12.499 32.757 0 45.256l-18.856 18.853c-12.496 12.496-32.757 12.499-45.253 0l-246.627-245.333c-12.496-12.496-12.499-32.757 0-45.253z" />
<glyph unicode="&#xf0ed;" glyph-name="cloud-download" horiz-adv-x="1707" d="M1524.533 547.2c7.467 26.4 11.467 53.867 11.467 82.133 0 165.067-133.6 298.667-298.667 298.667-44.533 0-87.733-9.6-128-28.8-84.267 120-224.8 199.467-384 199.467-251.733 0-457.867-198.667-468.8-448.533-152-53.333-256.533-197.6-256.533-362.133 0-212.267 171.733-384 384-384h981.333c188.533 0 341.333 152.533 341.333 341.333 0 125.333-68.8 242.133-182.133 301.867zM1365.333-10.667h-981.333c-165.067 0-298.667 133.6-298.667 298.667 0 151.467 112.533 276.533 258.667 296-1.867 14.933-2.667 30.133-2.667 45.333 0 212 172 384 384 384 160.8 0 298.4-98.667 355.733-238.933 38.933 41.867 94.4 68.267 156.267 68.267 117.867 0 213.333-95.467 213.333-213.333 0-49.333-16.8-94.933-45.067-131.2 122.4-19.2 215.733-125.067 215.733-252.8 0-141.333-114.667-256-256-256zM1080.533 505.333c-12.533 12.533-32.8 12.533-45.333 0l-181.867-181.867v401.867c0 17.6-14.4 32-32 32h-21.333c-17.6 0-32-14.4-32-32v-401.867l-181.867 181.867c-12.533 12.533-32.8 12.533-45.333 0l-15.2-15.2c-12.533-12.533-12.533-32.8 0-45.333l262.133-262.133c12.533-12.533 32.8-12.533 45.333 0l262.133 262.133c12.533 12.533 12.533 32.8 0 45.333l-14.667 15.2z" />
<glyph unicode="&#xf0ee;" glyph-name="cloud-upload" horiz-adv-x="1707" d="M833.333 734.667c-12.533 12.533-32.8 12.533-45.333 0l-262.133-262.133c-12.533-12.533-12.533-32.8 0-45.333l15.2-15.2c12.533-12.533 32.8-12.533 45.333 0l181.867 181.867v-401.867c0-17.6 14.4-32 32-32h21.333c17.6 0 32 14.4 32 32v401.867l181.867-181.867c12.533-12.533 32.8-12.533 45.333 0l15.2 15.2c12.533 12.533 12.533 32.8 0 45.333l-262.667 262.133zM1524.533 547.2c7.467 26.4 11.467 53.867 11.467 82.133 0 165.067-133.6 298.667-298.667 298.667-44.533 0-87.733-9.6-128-28.8-84.267 120-224.8 199.467-384 199.467-251.733 0-457.867-198.667-468.8-448.533-152-53.333-256.533-197.6-256.533-362.133 0-212.267 171.733-384 384-384h981.333c188.533 0 341.333 152.533 341.333 341.333 0 125.333-68.8 242.133-182.133 301.867zM1365.333-10.667h-981.333c-165.067 0-298.667 133.6-298.667 298.667 0 151.467 112.533 276.533 258.667 296-1.867 14.933-2.667 30.133-2.667 45.333 0 212 172 384 384 384 160.8 0 298.4-98.667 355.733-238.933 38.933 41.867 94.4 68.267 156.267 68.267 117.867 0 213.333-95.467 213.333-213.333 0-49.333-16.8-94.933-45.067-131.2 122.4-19.2 215.733-125.067 215.733-252.8 0-141.333-114.667-256-256-256z" />
<glyph unicode="&#xf0f3;" glyph-name="bell" horiz-adv-x="1195" d="M1157.024 207.843c-59.333 59.333-133.024 133.176-133.024 421.491 0 211.717-154.216 387.384-356.435 420.88 9.45 13.497 15.101 30.259 15.101 48.34 0 0.040 0 0.080 0 0.119v-0.006c0 47.128-38.205 85.333-85.333 85.333s-85.333-38.205-85.333-85.333c0-18 5.587-34.688 15.101-48.453-202.219-33.496-356.435-209.163-356.435-420.88 0-288.315-73.715-362.157-133.048-421.491-80.397-80.397-23.419-218.509 90.509-218.509h298.539c0-94.107 76.56-170.667 170.667-170.667s170.667 76.56 170.667 170.667h298.515c113.701 0 171.069 137.949 90.509 218.509zM597.333-96c-47.053 0-85.333 38.28-85.333 85.333h170.667c0-47.053-38.28-85.333-85.333-85.333zM1066.515 74.667h-938.387c-37.928 0-56.883 46.123-30.171 72.837 92.936 92.933 158.043 196.963 158.043 481.829 0 188.643 152.664 341.333 341.333 341.333 188.64 0 341.333-152.664 341.333-341.333 0-283.784 64.549-388.36 158.019-481.829 26.819-26.821 7.608-72.837-30.171-72.837z" />
<glyph unicode="&#xf0f4;" glyph-name="bell2" horiz-adv-x="1195" d="M1134.408 301.496c-45.304 44.76-92.123 91.048-92.123 309.555 0 221.403-162.555 405.531-374.579 439.365 9.364 13.454 14.96 30.141 14.96 48.134 0 0.041 0 0.082 0 0.123v-0.006c0 47.128-38.205 85.333-85.333 85.333s-85.333-38.205-85.333-85.333c0-0.035 0-0.077 0-0.119 0-17.993 5.595-34.679 15.141-48.413l-0.184 0.279c-212.021-33.835-374.576-217.963-374.576-439.365 0-218.488-46.803-264.779-92.115-309.541-128.256-126.683-34.331-312.173 118.184-312.173h248.216c0-94.256 76.411-170.667 170.667-170.667s170.667 76.411 170.667 170.667h248.213c152.507 0 246.44 185.555 118.195 312.163zM597.333-74.667c-35.291 0-64 28.709-64 64h128c0-35.291-28.709-64-64-64zM1016.245 117.333h-837.845c-44.699 0-67.027 54.373-35.557 85.843 76.227 76.227 137.539 148.597 137.539 407.872 0 174.768 142.184 316.952 316.952 316.952s316.952-142.184 316.952-316.952c0-260.4 61.923-332.197 137.515-407.872 31.608-31.605 8.955-85.843-35.555-85.843z" />
<glyph unicode="&#xf0fe;" glyph-name="plus-square" horiz-adv-x="1195" d="M1066.667 1013.333c23.467 0 42.667-19.2 42.667-42.667v-938.667c0-23.467-19.2-42.667-42.667-42.667h-938.667c-23.467 0-42.667 19.2-42.667 42.667v938.667c0 23.467 19.2 42.667 42.667 42.667h938.667M1066.667 1098.667h-938.667c-70.667 0-128-57.333-128-128v-938.667c0-70.667 57.333-128 128-128h938.667c70.667 0 128 57.333 128 128v938.667c0 70.667-57.333 128-128 128zM906.667 549.333h-261.333v261.333c0 17.6-14.4 32-32 32h-32c-17.6 0-32-14.4-32-32v-261.333h-261.333c-17.6 0-32-14.4-32-32v-32c0-17.6 14.4-32 32-32h261.333v-261.333c0-17.6 14.4-32 32-32h32c17.6 0 32 14.4 32 32v261.333h261.333c17.6 0 32 14.4 32 32v32c0 17.6-14.4 32-32 32z" />
<glyph unicode="&#xf104;" glyph-name="angle-left" horiz-adv-x="512" d="M66.933 524l314.133 309.333c12.533 12.533 32.8 12.533 45.333 0l18.933-18.933c12.533-12.533 12.533-32.8 0-45.333l-272.8-267.733 272.533-267.733c12.533-12.533 12.533-32.8 0-45.333l-18.933-18.933c-12.533-12.533-32.8-12.533-45.333 0l-314.133 309.333c-12.267 12.533-12.267 32.8 0.267 45.333z" />
<glyph unicode="&#xf105;" glyph-name="angle-right" horiz-adv-x="512" d="M445.067 478.667l-314.133-309.333c-12.533-12.533-32.8-12.533-45.333 0l-18.933 18.933c-12.533 12.533-12.533 32.8 0 45.333l272.8 267.733-272.533 267.733c-12.533 12.533-12.533 32.8 0 45.333l18.933 18.933c12.533 12.533 32.8 12.533 45.333 0l314.133-309.333c12.267-12.533 12.267-32.8-0.267-45.333z" />
<glyph unicode="&#xf106;" glyph-name="angle-up" horiz-adv-x="683" d="M364 690.4l309.333-314.133c12.533-12.533 12.533-32.8 0-45.333l-18.933-18.933c-12.533-12.533-32.8-12.533-45.333 0l-267.733 272.8-267.733-272.533c-12.533-12.533-32.8-12.533-45.333 0l-18.933 18.933c-12.533 12.533-12.533 32.8 0 45.333l309.333 314.133c12.533 12.267 32.8 12.267 45.333-0.267z" />
<glyph unicode="&#xf107;" glyph-name="angle-down" horiz-adv-x="683" d="M318.667 312.267l-309.333 314.133c-12.533 12.533-12.533 32.8 0 45.333l18.933 18.933c12.533 12.533 32.8 12.533 45.333 0l267.733-272.8 267.733 272.533c12.533 12.533 32.8 12.533 45.333 0l18.933-18.933c12.533-12.533 12.533-32.8 0-45.333l-309.333-314.133c-12.533-12.267-32.8-12.267-45.333 0.267z" />
<glyph unicode="&#xf122;" glyph-name="reply-all" horiz-adv-x="1536" d="M363.491 677.771l469.344 405.293c41.085 35.48 105.832 6.675 105.832-48.437v-220.701c344.485-27.283 597.333-139.232 597.333-489.461 0-163.843-105.552-326.157-222.221-411.019-36.408-26.483-88.296 6.755-74.872 49.683 102.699 328.432-10.459 451.952-300.24 485.373v-224.467c0-55.203-64.8-83.875-105.832-48.437l-469.344 405.299c-29.523 25.496-29.563 71.341 0 96.875zM22.157 580.896l469.344-405.296c41.032-35.437 105.832-6.765 105.832 48.437v42.181l-289.616 250.093c-31.752 27.519-51.717 67.909-51.717 112.963 0 0.023 0 0.045 0 0.068v-0.003c0 0.018 0 0.040 0 0.062 0 45.049 19.965 85.436 51.528 112.794l0.186 0.158 289.619 250.096v42.179c0 55.112-64.747 83.917-105.832 48.437l-469.344-405.293c-29.563-25.533-29.523-71.379 0-96.875z" />
<glyph unicode="&#xf123;" glyph-name="reply-all2" horiz-adv-x="1536" d="M280.981 526.317l426.672-426.613c53.387-53.36 145.68-15.947 145.68 60.347v189.733c324.213-11.627 397.067-75.28 323.2-337.12-22.267-78.907 68-139.227 132.507-92.027 137.52 100.56 226.96 242.64 226.96 415.92 0 407.733-374.667 472.613-682.667 482.853v193.84c0 76.24-92.24 113.787-145.68 60.347l-426.672-426.587c-33.309-33.333-33.309-87.36 0-120.693zM341.333 586.664l426.667 426.667v-277.6c347.107-3.587 682.667-48.707 682.667-399.173 0-173.6-107.973-285.76-192-347.227 109.277 387.379-102.211 444.197-490.667 447.733v-277.067l-426.667 426.667zM24.992 647.005l426.667 426.597c35.912 35.912 89.32 30.683 120.504 0.28l-486.829-487.219 486.837-487.232c-31.197-30.408-84.635-35.592-120.509 0.283l-426.667 426.608c-33.325 33.328-33.325 87.357-0.003 120.683z" />
<glyph unicode="&#xf142;" glyph-name="ellipsis-v" horiz-adv-x="512" d="M256 693.333c106.133 0 192-85.867 192-192s-85.867-192-192-192-192 85.867-192 192 85.867 192 192 192zM64 970.667c0-106.133 85.867-192 192-192s192 85.867 192 192-85.867 192-192 192-192-85.867-192-192zM64 32c0-106.133 85.867-192 192-192s192 85.867 192 192-85.867 192-192 192-192-85.867-192-192z" />
<glyph unicode="&#xf146;" glyph-name="minus-square" horiz-adv-x="1195" d="M1066.667 1013.333c23.467 0 42.667-19.2 42.667-42.667v-938.667c0-23.467-19.2-42.667-42.667-42.667h-938.667c-23.467 0-42.667 19.2-42.667 42.667v938.667c0 23.467 19.2 42.667 42.667 42.667h938.667M1066.667 1098.667h-938.667c-70.667 0-128-57.333-128-128v-938.667c0-70.667 57.333-128 128-128h938.667c70.667 0 128 57.333 128 128v938.667c0 70.667-57.333 128-128 128zM906.667 453.333c17.6 0 32 14.4 32 32v32c0 17.6-14.4 32-32 32h-618.667c-17.6 0-32-14.4-32-32v-32c0-17.6 14.4-32 32-32h618.667z" />
<glyph unicode="&#xf14a;" glyph-name="check-square" horiz-adv-x="1195" d="M1066.667 1098.667h-938.667c-70.693 0-128-57.307-128-128v-938.667c0-70.693 57.307-128 128-128h938.667c70.693 0 128 57.307 128 128v938.667c0 70.693-57.307 128-128 128zM1066.667 32h-938.667v938.667h938.667v-938.667zM971.029 676.597l-460.237-456.544c-12.547-12.445-32.808-12.365-45.253 0.181l-242.083 244.043c-12.445 12.547-12.365 32.808 0.184 45.256l60.584 60.096c12.547 12.445 32.808 12.365 45.253-0.184l159.445-160.739 376.939 373.909c12.547 12.445 32.808 12.365 45.253-0.181l60.096-60.581c12.445-12.549 12.365-32.811-0.181-45.256z" />
<glyph unicode="&#xf155;" glyph-name="dollar-sign" horiz-adv-x="768" d="M565.067 538.4l-310.133 88.533c-42.133 12-76.267 45.867-82.933 89.333-10.4 67.733 42.133 126.4 108 126.4h196.8c42.4 0 84-13.333 118.4-37.6 17.067-12 40-10.133 54.667 4.533l61.067 61.067c18.133 18.133 16.267 48.533-4 64.267-65.867 50.933-145.867 78.4-230.133 78.4h-7.467v128c0 23.467-19.2 42.667-42.667 42.667h-85.333c-23.467 0-42.667-19.2-42.667-42.667v-128h-6.667c-131.2 0-252.267-84.8-283.733-212.267-37.067-149.867 53.867-296.533 194.667-336.8l310.133-88.533c42.133-12 76.267-45.867 82.933-89.333 10.4-67.733-42.133-126.4-108-126.4h-196.8c-42.4 0-84 13.333-118.4 37.6-17.067 12-40 10.133-54.667-4.533l-61.067-61.067c-18.133-18.133-16.267-48.533 4-64.267 65.6-50.933 145.6-78.4 230.133-78.4h7.467v-128c0-23.467 19.2-42.667 42.667-42.667h85.333c23.467 0 42.667 19.2 42.667 42.667v128h6.667c131.2 0 252.267 84.8 283.733 212.267 37.067 149.867-53.867 296.533-194.667 336.8z" />
<glyph unicode="&#xf156;" glyph-name="rupee-sign" horiz-adv-x="853" d="M853.333 1024v42.667c0 17.672-14.328 32-32 32h-789.333c-17.672 0-32-14.328-32-32v-42.667c0-17.672 14.328-32 32-32h193.637c125.581 0 216.816-53.656 249.003-149.333h-442.64c-17.672 0-32-14.328-32-32v-42.667c0-17.672 14.328-32 32-32h454.365c-10.781-133.619-111.597-212.144-262.427-212.144h-191.939c-17.672 0-32-14.328-32-32v-42.152c0-7.96 2.968-15.635 8.323-21.525l467.019-513.704c5.874-6.446 14.305-10.475 23.676-10.475 0.001 0 0.001 0 0.002 0h57.557c27.731 0 42.336 32.869 23.747 53.448l-414.173 458.552h62.419c205.917 0 356.797 124.211 368.064 320h224.701c17.672 0 32 14.328 32 32v42.667c0 17.672-14.328 32-32 32h-232.901c-13.227 58.901-40.765 109.251-79.515 149.333h312.416c17.672 0 32 14.328 32 32z" />
<glyph unicode="&#xf157;" glyph-name="rupee-sign2" horiz-adv-x="853" d="M821.333 970.667c17.672 0 32 14.328 32 32v64c0 17.672-14.328 32-32 32h-789.333c-17.672 0-32-14.328-32-32v-84.424c0-17.672 14.328-32 32-32h249.627c104.173 0 179.208-46.4 211.888-128.909h-461.515c-17.672 0-32-14.328-32-32v-64c0-17.672 14.328-32 32-32h478.907c-9.147-132.635-95.139-214.243-230.973-214.243h-247.933c-17.672 0-32-14.328-32-32v-93.264c0-9.32 4.064-18.176 11.128-24.256l485.584-417.827c5.566-4.812 12.875-7.744 20.868-7.744 0.001 0 0.003 0 0.004 0h163.536c29.68 0 43.368 36.899 20.872 56.256l-430.477 370.411h35.493c210.672 0 364.581 144.685 375.067 362.667h139.259c17.672 0 32 14.328 32 32v64c0 17.672-14.328 32-32 32h-150.277c-13.512 57.696-38.424 107.992-72.539 149.333h222.816z" />
</font>
</defs>
</svg>
